<?xml version="1.0" encoding="iso-8859-1"?>
<!-- Uploaded to: SVG Repo, www.svgrepo.com, Generator: SVG Repo Mixer Tools -->
<svg version="1.1" id="Layer_1" xmlns="http://www.w3.org/2000/svg" xmlns:xlink="http://www.w3.org/1999/xlink" 
	 viewBox="0 0 511.999 511.999" xml:space="preserve">
<g>
	<path style="fill:#F9EACD;" d="M256.002,373.334L256.002,373.334L256.002,373.334z M352.002,192.004h-63.999v32h-32.002h-32.004
		v-32h-63.999v32H96v-32H31.998v64.001h21.334v42.665v202.662h160.002v-85.333c0-23.464,19.199-42.665,42.667-42.665
		c23.466,0,42.665,19.201,42.665,42.665v85.333h160v-42.66V256.005H480v-64.001h-63.999v32h-63.999V192.004z"/>
	<polygon style="fill:#7BA9D6;" points="288.003,192.004 352.002,192.004 352.002,224.003 416.001,224.003 416.001,192.004 
		335.999,122.671 256.002,53.336 96,192.004 96,224.003 159.999,224.003 159.999,192.004 223.998,192.004 223.998,224.003 
		256.002,224.003 288.003,224.003 	"/>
	<rect x="256.003" y="10.667" style="fill:#F99A98;" width="63.331" height="40"/>
</g>
<g>
	<path style="fill:#000003;" d="M480.001,181.336h-60.02L281.515,61.334h37.816c5.89,0,10.667-4.778,10.667-10.667v-40
		c0-5.89-4.777-10.667-10.667-10.667h-63.332c-5.891,0-10.667,4.777-10.667,10.667v37.8L92.023,181.336H31.998
		c-5.89,0-10.667,4.776-10.667,10.667v64.001c0,5.889,4.777,10.667,10.667,10.667h10.667v234.66c0,5.892,4.778,10.667,10.667,10.667
		h160.002c5.889,0,10.667-4.776,10.667-10.667v-85.333c0-17.643,14.355-31.997,32-31.997c17.643,0,31.997,14.355,31.997,31.997
		v85.333c0,5.892,4.776,10.667,10.667,10.667h160c5.892,0,10.667-4.776,10.667-10.667v-234.66H480
		c5.892,0,10.667-4.778,10.667-10.667v-64.001C490.669,186.112,485.893,181.336,480.001,181.336z M352.002,181.336h-63.999
		c-5.889,0-10.667,4.776-10.667,10.667v21.332h-42.671v-21.332c0-5.891-4.776-10.667-10.667-10.667h-63.999
		c-5.889,0-10.667,4.776-10.667,10.667v21.332h-42.665v-16.464L256.002,67.453l51.405,44.551h-43.24
		c-5.889,0-10.667,4.778-10.667,10.667c0,5.892,4.778,10.667,10.667,10.667h67.857l73.31,63.535v16.464h-42.665v-21.332
		C362.67,186.112,357.895,181.336,352.002,181.336z M308.665,40h-41.996V21.334h41.996V40z M469.334,245.338h-10.667
		c-5.89,0-10.667,4.776-10.667,10.667v191.999h-29.129c-5.889,0-10.667,4.778-10.667,10.667c0,5.892,4.778,10.667,10.667,10.667H448
		v21.326H309.333v-74.666c0-29.407-23.927-53.332-53.334-53.332s-53.332,23.924-53.332,53.332v74.666H64V309.337h43.161
		c5.892,0,10.667-4.778,10.667-10.667c0-5.892-4.776-10.667-10.667-10.667H64v-31.997c0-5.892-4.776-10.667-10.667-10.667H42.666
		v-42.667h42.667v21.332c0,5.891,4.778,10.667,10.667,10.667h63.999c5.892,0,10.667-4.776,10.667-10.667v-21.332h42.665v21.332
		c0,5.891,4.778,10.667,10.667,10.667h64.005c5.892,0,10.667-4.776,10.667-10.667v-21.332h42.665v21.332
		c0,5.891,4.778,10.667,10.667,10.667h63.999c5.892,0,10.667-4.776,10.667-10.667v-21.332h42.665v42.667H469.334z"/>
	<path style="fill:#000003;" d="M137.806,309.341h0.252c5.892,0,10.667-4.777,10.667-10.667c0-5.892-4.776-10.667-10.667-10.667
		h-0.252c-5.892,0-10.667,4.776-10.667,10.667C127.139,304.564,131.914,309.341,137.806,309.341z"/>
	<path style="fill:#000003;" d="M388.227,448h-0.254c-5.892,0-10.667,4.778-10.667,10.667c0,5.892,4.776,10.667,10.667,10.667h0.254
		c5.889,0,10.667-4.776,10.667-10.667C398.894,452.778,394.118,448,388.227,448z"/>
	<path style="fill:#000003;" d="M382.55,322.375c0-5.89-4.776-10.667-10.667-10.667h-38.334c-5.889,0-10.667,4.777-10.667,10.667
		c0,5.892,4.778,10.667,10.667,10.667h38.334C377.775,333.042,382.55,328.267,382.55,322.375z"/>
	<path style="fill:#000003;" d="M162.718,391.708h-38.333c-5.889,0-10.667,4.776-10.667,10.667c0,5.889,4.778,10.667,10.667,10.667
		h38.333c5.893,0,10.667-4.778,10.667-10.667C173.385,396.484,168.61,391.708,162.718,391.708z"/>
</g>
</svg>