<?xml version="1.0" encoding="utf-8"?><!-- Uploaded to: SVG Repo, www.svgrepo.com, Generator: SVG Repo Mixer Tools -->
<svg version="1.1" id="Uploaded to svgrepo.com" xmlns="http://www.w3.org/2000/svg" xmlns:xlink="http://www.w3.org/1999/xlink" 
	 width="800px" height="800px" viewBox="0 0 32 32" xml:space="preserve">
<style type="text/css">
	.linesandangles_een{fill:#111918;}
</style>
<path class="linesandangles_een" d="M28,14c0-5.299-3.29-9-8-9c-0.842,0-1.645,0.117-2.398,0.347C16.202,3.865,14.268,3,12,3
	c-4.71,0-8,3.701-8,9c0,4.796,2.699,8.272,6.703,8.891L10,23h1v6h2v-6h1l-0.703-2.109c0.377-0.058,0.745-0.136,1.097-0.244
	c1.142,1.215,2.627,1.981,4.309,2.242L18,25h1v4h2v-4h1l-0.703-2.109C25.301,22.272,28,18.796,28,14z M6,12c0-3.484,1.855-7,6-7
	s6,3.516,6,7s-1.855,7-6,7S6,15.484,6,12z M20,21c-1.435,0-2.684-0.438-3.676-1.27C18.599,18.216,20,15.451,20,12
	c0-1.862-0.413-3.52-1.144-4.896C19.223,7.039,19.603,7,20,7c4.145,0,6,3.516,6,7S24.145,21,20,21z"/>
</svg>