<?xml version="1.0" encoding="utf-8"?>
<!-- Uploaded to: SVG Repo, www.svgrepo.com, Generator: SVG Repo Mixer Tools -->
<svg width="800px" height="800px" viewBox="0 0 1024 1024" class="icon"  version="1.1" xmlns="http://www.w3.org/2000/svg"><path d="M907.8 281c6 15.3 5.1 32.5-2.5 47.1-22.1 42.1-57.7 122.9-62.5 211.6 0.4 5.5 0.3 11.2-0.6 17.3 0 1.9-0.1 3.8-0.1 5.7l-1.6 0.1c-4.2 9.8-17.4 34-47.4 45.4-10.5 3.9-21.8 5.8-34 5.8-26.3 0-135-54.3-180.1-79.2 19.2 44.3 89.6 203.2 140.5 253.8 8.9 8.8 12.8 20.8 10.9 33.1-1.9 12.2-9.3 22.3-20.3 28L544.2 919c-5.2 2.7-11 3.9-16.9 3.9-5.1 0-10.1-0.9-15-2.9-10.4-4.4-18.3-13.1-21.7-23.8l-22.3-71.3h-122c-10.3 0-19.8-5.6-24.9-14.7-4.9-9-4.6-19.4 0.8-27.9 37.2-58.7 61.9-196.4 68.4-235.7-51.2 25.9-127.6 60.6-149.2 60.6-12.2 0-23.6-1.9-34-5.8-36.8-14-48.3-47.2-48.8-48.6-1.3-7.9-1.5-15.1-0.8-21.8h-0.6c0.8-97.2-38.1-166.7-63.7-212.7l-4.9-8.9c-5.8-10.5-7-23.2-3.3-34.6 3.7-11.2 11.5-20 22.1-25 137-63.8 298.5 39.6 320.5 54.4 6.1-16.1 14.3-29 25.1-38.3 22.3-19.2 46.4-15.7 47.4-15.6 43.8 1.8 67.5 27.1 80.7 54.9 39.2-24.6 173.7-99.7 294.7-55.8 14.6 5.3 26.2 16.7 32 31.6z m-13.9 41.2c6-11.3 6.7-24.7 2-36.7-4.4-11.5-13.2-20.2-24.5-24.2-116.2-42-250.1 33.7-285.4 55.8 10.7 29.2 11 57.3 11 61.1 16.9-8.8 61.8-27.9 111.2-17.5v0.1c2.8 0.6 5.1 3 5.1 6.1 0 3.6-2.9 6.3-6.3 6.3-0.5 0-0.9-0.1-1.4-0.3v0.1c-52.6-11.2-101 15.1-108.1 19.3l0.4 11.2c15.1-4.1 52-10.1 84 13.7v0.1c2 1 3.4 3.2 3.4 5.7 0 3.6-2.9 6.3-6.3 6.3-1.9 0-3.4-0.8-4.6-2l-0.1 0.1c-29.7-22.3-65.6-14.1-75.9-11l1.1 31.1c0 24.1-5.1 44.3-15 60.8 50.7-13.6 191.5-46.3 240.8-3.4 2.5 2.3 4.8 4.8 6.8 7.5C842 432 873.6 361 893.9 322.2z m-64.5 233.9c0.1-5.3 0.3-10.7 0.5-16-1.1-10.3-5.2-18.9-12.8-25.6-45.9-40-191.9-4.1-234.8 7.7 53.4 29.6 176.2 85.2 205.9 74.1 29.5-11.2 40.1-37.3 41.2-40.2zM717.6 819.7c1.3-8.1-1.4-16.2-7.2-22.1-57-56.6-134.5-237.1-146.6-265.7-26.1 20.4-58 22.5-68.5 22.5-1.9 0-3.2-0.1-3.4-0.1-25.9 0.8-45.7-6.6-58.9-20.9-1.9-2.2-3.4-4.3-4.9-6.5-5.8 3.4-14 7.7-23.3 12.6-2.9 18.9-28.7 181.8-71.7 249.8-2.9 4.4-3 10.1-0.4 15 2.8 5.1 7.9 8.1 13.7 8.1h180.4c13.2 0 24.6-9.5 27-22.5 7-36.9 10.9-110.7-41.9-191.3l10.7-7c55.2 84.4 51 161.9 43.6 200.5-3.6 19-20.2 32.9-39.4 32.9h-45l21.2 67.5c2.2 7.2 7.5 13.1 14.5 16 7 2.8 14.7 2.5 21.4-0.9l165.8-69.3c6.8-3.6 11.6-10.5 12.9-18.6zM587 447.8l-2.5-69.3c0-2.4 0.3-33-11.8-62.2l-2.8-3.8c0.3-0.1 0.5-0.4 0.9-0.6-11.5-24.9-32.6-47.4-71.4-49-1.5-0.3-20.4-2.8-38.3 12.8-20.7 17.9-31.6 53.5-31.6 102.9v103.9c-0.1 0.9-2.4 25.4 13.1 42.2 10.5 11.5 27.4 17.1 49.6 16.7 0.9 0 41.9 2 69.4-24.1 16.7-15.9 25.4-39.3 25.4-69.5zM424.7 313.9l-1.6 2.3c-1.8-1.3-172.8-119.1-310.4-55.1-7.4 3.4-12.8 9.6-15.3 17.5-2.7 8.1-1.8 17 2.4 24.6l4.8 8.8c24 42.9 58.7 105.7 64.4 191.9 1.8-2.2 3.7-4.2 6-6.1 51.4-44.5 202.7-5.1 243.5 6.7-2.7-12.2-1.9-22.1-1.8-22.8v-67.1c-9.9-2.3-36-7-61.6 1.1h-0.1c-0.8 0.3-1.5 0.4-2.4 0.4-3.7 0-6.7-2.8-6.7-6.2 0-3 2.4-5.6 5.5-6.1l-0.1-0.1c26.6-8.5 52.8-4.8 65.6-2v-23.1c0-5.2 0.1-10.3 0.4-15.2-11-4.7-52.4-20-90.4-4.8v-0.1c-0.6 0.3-1.3 0.5-2 0.5-3.4 0-6.3-2.9-6.3-6.3 0-2.5 1.5-4.7 3.7-5.7v-0.1c39.1-15.7 79.8-3.2 96.2 3.3 0.9-13.4 3-25.5 6.2-36.3z m-6.5 203.9c-33.6-9.8-187.6-51.4-235-10.3-11.3 9.8-15.3 23.6-12.3 42.2 0.1 0 10.4 28.3 41.2 39.8 30.2 11.4 154.1-42.8 206.1-71.7z" fill="#9B0E33" /><path d="M896 285.5c4.7 11.9 3.9 25.4-2 36.7-20.4 38.8-52 109.8-61.7 190.3-2-2.7-4.3-5.2-6.8-7.5-49.2-42.9-190-10.1-240.8 3.4 9.9-16.5 15-36.7 15-60.8l-1.1-31.1c10.3-3 46.2-11.3 75.9 11l0.1-0.1c1.1 1.3 2.7 2 4.6 2 3.4 0 6.3-2.8 6.3-6.3 0-2.5-1.4-4.7-3.4-5.7v-0.1c-32-23.8-68.9-17.8-84-13.7l-0.4-11.2c7.1-4.2 55.4-30.4 108.1-19.3v-0.1c0.5 0.1 0.9 0.3 1.4 0.3 3.4 0 6.3-2.8 6.3-6.3 0-3-2.3-5.5-5.1-6.1v-0.1c-49.5-10.4-94.4 8.8-111.2 17.5 0-3.8-0.4-32-11-61.1 35.3-22.1 169.2-97.8 285.4-55.8 11.2 4 19.9 12.6 24.4 24.1z" fill="#FF3333" /><path d="M829.9 540.1c-0.3 5.3-0.4 10.7-0.5 16-1 2.9-11.7 29-41.2 40.2-29.7 11.2-152.5-44.5-205.9-74.1 42.9-11.8 188.9-47.7 234.8-7.7 7.6 6.7 11.6 15.3 12.8 25.6zM710.4 797.6c5.8 5.8 8.5 14 7.2 22.1-1.3 8.1-6.1 15-13.1 18.5l-165.8 69.3c-6.7 3.4-14.5 3.7-21.4 0.9-7-2.9-12.3-8.8-14.5-16l-21.2-67.5h45c19.3 0 35.9-13.8 39.4-32.9 7.4-38.7 11.5-116.2-43.6-200.5l-10.7 7c52.8 80.5 48.8 154.4 41.9 191.3-2.4 12.9-13.8 22.5-27 22.5H346.3c-5.8 0-10.9-3-13.7-8.1-2.7-4.8-2.5-10.5 0.4-15 43-68 68.8-230.9 71.7-249.8 9.4-4.8 17.5-9.1 23.3-12.6 1.5 2.2 3 4.3 4.9 6.5 13.2 14.3 33 21.7 58.9 20.9 0.3 0 1.5 0.1 3.4 0.1 10.5 0 42.4-2 68.5-22.5 12.2 28.7 89.7 209.2 146.7 265.8z" fill="#FF3333" /><path d="M584.4 378.5l2.5 69.3c0 30.2-8.6 53.7-25.5 69.6-27.5 26.1-68.5 24.1-69.4 24.1-22.2 0.4-39.1-5.2-49.6-16.7-15.5-16.9-13.2-41.4-13.1-42.2v-104c0-49.3 10.9-85 31.6-102.9 17.9-15.6 36.8-13.1 38.3-12.8 38.8 1.5 59.9 24.1 71.4 49-0.4 0.3-0.6 0.5-0.9 0.6l2.8 3.8c12.2 29.2 11.9 59.8 11.9 62.2zM423.1 316.2l1.6-2.3c-3.2 10.8-5.3 22.8-6.6 36.2-16.4-6.5-57.1-19-96.2-3.3v0.1c-2.2 1-3.7 3.2-3.7 5.7 0 3.4 2.9 6.3 6.3 6.3 0.8 0 1.4-0.3 2-0.5v0.1c38.1-15.2 79.4 0.1 90.4 4.8-0.3 4.9-0.4 10-0.4 15.2v23.1c-12.8-2.8-38.9-6.5-65.6 2l0.1 0.1c-3 0.5-5.5 3-5.5 6.1 0 3.4 3 6.2 6.7 6.2 0.9 0 1.6-0.1 2.4-0.4h0.1c25.6-8.1 51.8-3.4 61.6-1.1v67.1c-0.1 0.8-0.9 10.7 1.8 22.8-40.8-11.8-192.2-51.2-243.5-6.7-2.3 1.9-4.2 3.9-6 6.1-5.7-86.3-40.5-149-64.4-191.9l-4.8-8.8c-4.2-7.6-5.1-16.5-2.4-24.6 2.5-7.9 8-14.1 15.3-17.5 138-63.9 309 54 310.8 55.2z" fill="#FF3333" /><path d="M183.2 507.5c47.4-41.1 201.4 0.5 235 10.3-52 28.9-175.9 83.1-206.1 71.8-30.8-11.5-41.1-39.8-41.2-39.8-3-18.7 1-32.5 12.3-42.3z" fill="#FF3333" /></svg>