<?xml version="1.0" ?>
<!-- Uploaded to: SVG Repo, www.svgrepo.com, Generator: SVG Repo Mixer Tools -->
<svg width="800px" height="800px" viewBox="0 0 64 64" xmlns="http://www.w3.org/2000/svg">
<defs>
<style>.cls-1{fill:#f24463;}.cls-2{fill:#d51d48;}.cls-3{fill:#ffffff;}</style>
</defs>
<g id="main">
<path class="cls-1" d="M47,1A16.5,16.5,0,0,0,32,9.68,16.48,16.48,0,0,0,17,1,16.81,16.81,0,0,0,1,18.07C1.28,49.41,25.85,60.8,30.78,62.76A3.2,3.2,0,0,0,32,63a3.32,3.32,0,0,0,1.23-.24c4.92-2,29.49-13.35,29.77-44.69A16.81,16.81,0,0,0,47,1Z"/>
<path class="cls-2" d="M57.26,16.85a1,1,0,0,1-1-.85A9.9,9.9,0,0,0,47,7.63a1,1,0,0,1,.1-2,11.9,11.9,0,0,1,11.2,10.06,1,1,0,0,1-.84,1.14Z"/>
<path class="cls-3" d="M21.64,26H19a1,1,0,0,0-1,1V37a1,1,0,0,0,1,1h0l2.72,0c2.76-.05,4.76-2.52,4.76-5.88S24.62,26.2,21.64,26Zm.06,10L20,36V28h1.57c2.16.14,2.93,2.2,2.93,4.07S23.62,35.92,21.7,36Z"/>
<path class="cls-3" d="M41.14,26H38.5a1,1,0,0,0-1,1V37a1,1,0,0,0,1,1h0l2.72,0C44,37.9,46,35.43,46,32.07S44.12,26.2,41.14,26Zm.06,10-1.7,0V28h1.57c2.16.14,2.93,2.2,2.93,4.07S43.12,35.92,41.2,36Z"/>
<path class="cls-3" d="M32.74,26.78A1.21,1.21,0,0,0,31.61,26h0a1.21,1.21,0,0,0-1.14.81L27,36.67a1,1,0,0,0,1.89.66l.65-1.83h4.14l.64,1.83a1,1,0,0,0,1.88-.66ZM30.23,33.5l1.38-3.89L33,33.5Z"/>
</g>
</svg>