<?xml version="1.0" encoding="utf-8"?>
<!-- Uploaded to: SVG Repo, www.svgrepo.com, Generator: SVG Repo Mixer Tools -->
<svg width="800px" height="800px" viewBox="0 -109.58 466.076 466.076" xmlns="http://www.w3.org/2000/svg"><defs><style>.a{fill:#ffffff;}.b{fill:#a095c1;}.c{fill:#a98a75;}.d{fill:#211715;}.e{fill:#b3b3b3;}.f{fill:#febe69;}.g{fill:#85807f;}.h{fill:#7abee6;}</style></defs><path class="a" d="M430.064,95.811a3.821,3.821,0,0,1-.465-1.556,32.78,32.78,0,0,0,1.346-3.717l.4.066a4.986,4.986,0,0,0,2.7-.35l1.805.533a3.16,3.16,0,0,1,1.88,3.632,4.272,4.272,0,0,1-2.715,3.162A4.169,4.169,0,0,1,430.064,95.811Z"/><path class="a" d="M364.5,90.619a2.609,2.609,0,0,1,.7-.439s.4-.17,1.013-.422a5.2,5.2,0,0,0,4.21.909,38.189,38.189,0,0,0,1.773,4.778,4.763,4.763,0,0,1-5.212,2.3,4.848,4.848,0,0,1-3.455-3.232A3.821,3.821,0,0,1,364.5,90.619Z"/><path class="a" d="M431.783,71.936a4.859,4.859,0,0,1,3.512-1.294,4.512,4.512,0,0,1,4.059,2.243c1.383,2.385,1.334,6.787.416,9.513a14.7,14.7,0,0,1-4.3,7,5.36,5.36,0,0,1-4.13,1.2l-.4-.066a31.285,31.285,0,0,1-1.414,3.863c-1,2.722-6.3,11.958-13.159,16.2a16.359,16.359,0,0,0,1.909,5.729c1.56,2.523,5.775,4.658,10.039,6.5-.081,1.2-.166,2.463-.166,2.463q-.1,1.3-.2,2.712l-2.426.74-5.773,1.76c-12.582,3.338-25.89,1.251-38.736-.855l-3.306-.485-2.017-.3c.057-2.965.122-5.693.2-8.116a39.467,39.467,0,0,0,8.519-3.528,3.113,3.113,0,0,0,1.01-.78,2.467,2.467,0,0,0,.25-.81c.25-1.439.51-2.869.759-4.308a28.341,28.341,0,0,1-8.952-7.437,36.975,36.975,0,0,1-7.047-13.223,5.259,5.259,0,0,1-4.474-1.111,14.692,14.692,0,0,1-4.329-6.985c-.93-2.722-1-7.123.374-9.515A4.51,4.51,0,0,1,366.05,70.8a4.867,4.867,0,0,1,3.519,1.279s.193-27.218,31.676-27.218S431.783,71.936,431.783,71.936Z"/><path class="a" d="M331.393,54.257a5.021,5.021,0,0,1,3.629-1.326,4.658,4.658,0,0,1,4.182,2.326c1.42,2.466,1.358,7.008.4,9.818a15.169,15.169,0,0,1-4.454,7.216,5.532,5.532,0,0,1-4.266,1.229l-.406-.069a32.872,32.872,0,0,1-1.473,3.982c-.951,2.579-5.676,10.825-11.937,15.529v2.3c-4.276,4.708-10,8.814-15.317,12.694l-2.569.1a93.842,93.842,0,0,1-15.026-11.732V94.61a29.556,29.556,0,0,1-8.893-7.53,38.174,38.174,0,0,1-7.235-13.665,5.43,5.43,0,0,1-4.614-1.159,15.172,15.172,0,0,1-4.448-7.221c-.952-2.811-1.01-7.353.412-9.817a4.657,4.657,0,0,1,4.185-2.322,5.015,5.015,0,0,1,3.627,1.33s-5.039-27.107,31.915-27.107S331.393,54.257,331.393,54.257Z"/><path class="b" d="M375.57,136.457c.037-2.695.077-5.266.123-7.679l5.322.872c15.695,2.572,32.078,5.118,46.987-2.224-1.418,18.714-4.227,52.12-7.292,76.607,0,0-.044.467-.108,1.156-6.34.829-13.245-.117-18.5,3.318a2.876,2.876,0,0,0-1.333,2.9,2.318,2.318,0,0,0,1.818,1.713l-2.276-1.2c-1.12-.588-4.5-.632-6.745-.723-6.089-.246-14.165-.351-19.076-3.642a8.406,8.406,0,0,1,2.279-1.236c-.43-.16-1.084-.385-1.865-.647l.038-1.114C375.278,184.644,375.3,156.954,375.57,136.457Z"/><path class="a" d="M400.766,211.4a2.876,2.876,0,0,1,1.333-2.9c6.549-4.278,15.65-1.761,23.036-4.336a31.8,31.8,0,0,0,5.93-2.885,18.808,18.808,0,0,1,3.777,5.1,43.143,43.143,0,0,1,4.224,13.121c-5.875,3.622-7.466,4.424-11.6,9.38-3.471,4.165-6.524,8.98-11.323,11.5a30.364,30.364,0,0,1-4.588,1.807c-2.46.819-5.416,1.584-7.245-.842-3.3,1.348-8.285.373-9.25-2.243a10.66,10.66,0,0,1-1.08.411,3,3,0,0,1-3.946-1.735,3.156,3.156,0,0,1,.56-3.47,28.882,28.882,0,0,1,3.609-2.358c-2.806,1.521-4.751,1.308-5.68-1.14a1.185,1.185,0,0,1-.062-.205l-1.981-.383c-.868-.168-2.093-.346-2.939-.56-3.3-.833-6.6-2.07-8.759-4.7a2.616,2.616,0,0,0-1.736-1.124c-.979-.14-3.778-.279-4.966-.462l-.745-.114a65.107,65.107,0,0,1,4.795-12.943,8.64,8.64,0,0,1,2.358-2.771c4.9,3.294,12.982,3.4,19.072,3.645,2.246.091,5.625.135,6.745.723"/><path class="a" d="M302.067,120.044q-.736.063-1.476.077a22.325,22.325,0,0,1-9.161-2.366q4.267-5.524,8.762-10.914a68.352,68.352,0,0,1,11.37,10.216A22.715,22.715,0,0,1,302.067,120.044Z"/><path class="c" d="M362.757,196.647l-.364-69.818a52.8,52.8,0,0,0-6.1-7.516,35.421,35.421,0,0,0-9.087-7.023c-8.154-4.35-15.815-5.368-25.194-9.136-2.814,5.064-5.585,10.173-9.441,14.971q-.517-.547-1.017-1.072a22.692,22.692,0,0,1-10.967,3.068,22.325,22.325,0,0,1-9.161-2.366q-.828,1.073-1.647,2.148-6.831-7.416-12.893-15.34c-11.046,3.381-16.682,6.145-26.464,11.079a28.4,28.4,0,0,0-7.708,5.785,38.854,38.854,0,0,0-6.87,11.164q-.27.753-.524,1.449c0,2.824,0,5.228,0,5.228v82.84H362.89Z"/><path class="d" d="M323.213,105.756c7,2.611,14.457,4.108,21.214,7.363a41.545,41.545,0,0,1,16.239,14.719c1.421,2.132,4.887.131,3.454-2.019-4.384-6.576-10.139-12.444-17.281-15.963-7.189-3.542-15.086-5.17-22.563-7.957-2.415-.9-3.458,2.964-1.063,3.857Z"/><path class="a" d="M277.1,103.979l7.056-7.656a93.842,93.842,0,0,0,15.026,11.732q-4.833,5.844-9.4,11.848-6.57-7.133-12.434-14.731"/><path class="a" d="M322.279,101.111a31.559,31.559,0,0,0-5.209-5.854c-4.276,4.708-10,8.814-15.317,12.694a82.5,82.5,0,0,1,10.822,10.174c4.1-5.1,6.972-10.552,9.974-15.927"/><path class="d" d="M278.516,105.393l7.057-7.655h-2.829a98.586,98.586,0,0,0,15.43,12.044l-.4-3.141q-4.979,6.028-9.713,12.253l3.142-.405q-6.528-7.1-12.435-14.732a2.01,2.01,0,0,0-2.828,0,2.053,2.053,0,0,0,0,2.829q5.9,7.629,12.434,14.732a2.031,2.031,0,0,0,3.141-.405q4.428-5.814,9.088-11.444a2.036,2.036,0,0,0-.405-3.141,93.2,93.2,0,0,1-14.62-11.419,2.027,2.027,0,0,0-2.829,0l-7.056,7.655c-1.743,1.891,1.079,4.727,2.828,2.829Z"/><path class="d" d="M324.006,100.1a43.174,43.174,0,0,0-5.522-6.258,2.027,2.027,0,0,0-2.829,0c-4.386,4.784-9.693,8.572-14.912,12.381a2.037,2.037,0,0,0,0,3.453,85.043,85.043,0,0,1,10.418,9.862,2.009,2.009,0,0,0,2.828,0c4.039-5.066,7.141-10.692,10.287-16.331,1.255-2.251-2.2-4.27-3.454-2.019-2.968,5.321-5.849,10.74-9.661,15.521h2.828a90.464,90.464,0,0,0-11.227-10.486v3.453c5.485-4,11.112-7.977,15.722-13.006h-2.829a37.951,37.951,0,0,1,4.9,5.449,2.056,2.056,0,0,0,2.736.718,2.017,2.017,0,0,0,.718-2.737Z"/><path class="d" d="M293.419,120.77a21.293,21.293,0,0,0,9.316,1.207,25.369,25.369,0,0,0,9.644-3.082c2.244-1.262.23-4.719-2.018-3.454a20.4,20.4,0,0,1-7.932,2.569,18.508,18.508,0,0,1-7.946-1.1,2,2,0,0,0-1.064,3.857Z"/><path class="e" d="M337.415,32.692a41.476,41.476,0,0,0-3.781-10.816c-6.572-12.5-20.581-19.851-34.458-19.858-9.132,0-16.921,2.549-23.363,7.483a18.746,18.746,0,0,0-6.485,8.31s-1.034.089-2.312.194c-4.674,4.811-7.166,13.622-6.918,22.558a49.59,49.59,0,0,0,1.552,12.7,5.89,5.89,0,0,1,1.915-.365,4.921,4.921,0,0,1,4.027,1.77c.769-4.817.662-11.076,6.58-18.04,1.226-1.443,4.682-2.721,7.856-4,3.021-1.215,12.571-1.228,16.4-1.042,7.99-1.2,18.427-.175,24.216,4.674a27.222,27.222,0,0,1,4.721,4.688c2.7,3.9,3.34,7.924,3.632,13.752a4.888,4.888,0,0,1,4.021-1.77,5.945,5.945,0,0,1,1.752.31A41.788,41.788,0,0,0,337.415,32.692Z"/><path class="d" d="M268.606,52.811a7.461,7.461,0,0,0-8.107-1.217,7.1,7.1,0,0,0-3.728,4.79,18.183,18.183,0,0,0,2.644,14.353c1.842,2.744,4.739,5.208,8.265,4.752a2.065,2.065,0,0,0,2-2,2.012,2.012,0,0,0-2-2c-2.624.339-4.37-1.825-5.508-3.926a15,15,0,0,1-1.831-5.724c-.167-1.951-.161-4.3,1-5.977-.278.4.5-.474.346-.354a2.834,2.834,0,0,1,1.135-.515,3.284,3.284,0,0,1,2.957.647c1.914,1.71,4.753-1.11,2.828-2.829Z"/><path class="d" d="M332.807,55.671A3.254,3.254,0,0,1,335.619,55a2.959,2.959,0,0,1,1.281.548c-.169-.129.618.753.345.355,1.154,1.681,1.161,4.025.992,5.978A15.02,15.02,0,0,1,336.4,67.6c-1.139,2.1-2.888,4.26-5.513,3.918a2.01,2.01,0,0,0-2,2,2.051,2.051,0,0,0,2,2c5.766.751,9.287-5.5,10.728-10.158,1.285-4.148,1.279-10.663-2.789-13.332a7.424,7.424,0,0,0-8.846.813c-1.926,1.716.911,4.537,2.828,2.828Z"/><path class="d" d="M329.155,70.563a32.4,32.4,0,0,1-1.464,4.873c-.2.532-.435,1.048-.653,1.574s.109-.213-.064.151c-.069.148-.136.3-.207.444a41.371,41.371,0,0,1-3.573,5.941c-3.145,4.453-7.445,9.3-12.97,10.6-2.5.588-1.445,4.446,1.063,3.858,6.388-1.5,11.31-6.838,15.012-11.949a42.5,42.5,0,0,0,3.884-6.349c.619-1.279.723-1.58,1.2-2.77a32.32,32.32,0,0,0,1.633-5.307c.525-2.511-3.33-3.585-3.857-1.063Z"/><path class="d" d="M265.464,71.481c2.745,12.07,11.811,25.246,24.86,27.216a2.064,2.064,0,0,0,2.46-1.4,2.015,2.015,0,0,0-1.4-2.46c-11.758-1.775-19.6-13.573-22.067-24.422-.57-2.51-4.428-1.448-3.857,1.063Z"/><path class="d" d="M266.45,15.783c-4.514,4.054-6.776,10.253-7.74,16.1a53.535,53.535,0,0,0,.883,21.426c.63,2.495,4.489,1.438,3.858-1.063a48.694,48.694,0,0,1-.884-19.3c.854-5.209,2.679-10.715,6.712-14.336,1.919-1.724-.917-4.545-2.829-2.829Z"/><path class="d" d="M281.5,30.7a25.887,25.887,0,0,0-7.446,3.393,18.645,18.645,0,0,0-4.994,6.551c-2.068,4.044-2.7,8.319-3.287,12.761a2.01,2.01,0,0,0,2,2,2.052,2.052,0,0,0,2-2c.461-3.485.961-7.144,2.592-10.447.932-1.886,2.186-4.275,3.9-5.562a21.486,21.486,0,0,1,6.3-2.839c2.44-.787,1.4-4.651-1.064-3.857Z"/><path class="d" d="M321.234,37.675c2.471,2.027,4.779,4.227,6.031,7.148a26.946,26.946,0,0,1,1.692,9.057,2.045,2.045,0,0,0,2,2,2.019,2.019,0,0,0,2-2,31.622,31.622,0,0,0-1.931-10.35,22.4,22.4,0,0,0-6.964-8.684,2.058,2.058,0,0,0-2.828,0,2.016,2.016,0,0,0,0,2.829Z"/><path class="d" d="M289.817,32.06c.068-.3.163-.582.255-.874.134-.428-.155.289.031-.08.08-.158.154-.318.239-.473a12.738,12.738,0,0,1,1-1.537c.045-.061.092-.123.139-.184q-.212.273-.077.1c.113-.139.222-.28.335-.419s.214-.26.324-.388c.234-.275.478-.543.733-.8a11.634,11.634,0,0,1,.894-.811c.125-.1.4-.239-.062.043.094-.057.184-.138.274-.2.194-.138.393-.271.6-.4a14.281,14.281,0,0,1,1.4-.771q.233-.111.467-.216l.209-.091q-.324.137-.118.052c.337-.125.67-.258,1.01-.376a2,2,0,1,0-1.064-3.857,16.535,16.535,0,0,0-6.431,3.8,23.108,23.108,0,0,0-2.034,2.436A10.637,10.637,0,0,0,285.96,31a2,2,0,1,0,3.857,1.064Z"/><path class="d" d="M296.726,33.513a16.134,16.134,0,0,1,2.989-1.719c-.261.11.033-.007.146-.05s.242-.089.363-.131c.248-.086.5-.165.751-.239.51-.15,1.027-.27,1.545-.39.808-.188,1.618-.37,2.434-.521q.753-.141,1.51-.251l.4-.056c-.225.03,0,0,.1-.01q.57-.069,1.143-.128a2.047,2.047,0,0,0,2-2,2.022,2.022,0,0,0-2-2c-4.651.479-9.5,1.3-13.392,4.041a2,2,0,1,0,2.019,3.454Z"/><path class="d" d="M338.833,53.348a44.371,44.371,0,0,0,.036-23.247,38.586,38.586,0,0,0-11.021-18.972,43.313,43.313,0,0,0-41.522-9.267C278.571,4.269,270.9,9.115,267.6,16.8a2.068,2.068,0,0,0,.717,2.736,2.014,2.014,0,0,0,2.737-.717,18.574,18.574,0,0,1,5.627-7.479,32.471,32.471,0,0,1,8.507-4.861,38.965,38.965,0,0,1,20.43-1.918c13.206,2.325,24.553,11.16,28.675,24.1a40.807,40.807,0,0,1,.682,23.625c-.73,2.474,3.129,3.531,3.857,1.063Z"/><path class="d" d="M293.136,81.666a13.466,13.466,0,0,0,6.483,1.51,10.623,10.623,0,0,0,6.615-1.979,2,2,0,0,0,0-2.828,2.063,2.063,0,0,0-2.829,0c.679-.529-.112.044-.333.159-.175.092-.646.222-.056.046-.181.054-.356.137-.537.2a10.458,10.458,0,0,1-1.5.342c.285-.047.173-.022-.046,0-.148.015-.3.027-.444.037-.355.022-.712.031-1.068.029-.32,0-.639-.013-.957-.035-.147-.01-.293-.022-.439-.036-.124-.013-.59.014-.115-.011a4.692,4.692,0,0,1-1.4-.312c-.2-.059-.389-.13-.583-.2-.475-.163.38.186-.05-.018-.241-.113-.478-.232-.714-.356a2,2,0,0,0-2.019,3.454Z"/><path class="d" d="M298.444,66.611a29.592,29.592,0,0,1,.694,3.183l-.071-.532a1.962,1.962,0,0,1,.011.44l.072-.532a1.058,1.058,0,0,1-.048.2l.2-.478a.786.786,0,0,1-.07.127l.313-.405a.723.723,0,0,1-.1.1l.4-.313a2.246,2.246,0,0,1-.252.133l.477-.2a1.788,1.788,0,0,1-.425.124l.532-.071a1.664,1.664,0,0,1-.4,0l.532.071c-.151-.021-.3-.057-.449-.078a1.511,1.511,0,0,0-.8-.035,1.492,1.492,0,0,0-.744.237,2,2,0,0,0-.717,2.736,1.91,1.91,0,0,0,1.195.919c.375.051.739.145,1.121.162a3.643,3.643,0,0,0,1.693-.408,2.526,2.526,0,0,0,1.375-1.654,4.006,4.006,0,0,0-.015-1.74c-.173-1.025-.41-2.042-.673-3.048a2,2,0,1,0-3.857,1.064Z"/><path class="d" d="M281.906,57.489c-.533,1.727-.188,5.7,3.084,6.041,4.325-.024,4.558-4.828,3.1-7.088C286.9,54.592,283.4,53.821,281.906,57.489Z"/><path class="d" d="M316.676,57.506c.531,1.728.183,5.7-3.09,6.038-4.325-.028-4.553-4.832-3.1-7.091C311.683,54.605,315.189,53.837,316.676,57.506Z"/><path class="d" d="M310.5,77.365a5.347,5.347,0,0,1,.483.537l-.313-.405a6.737,6.737,0,0,1,.857,1.5l-.2-.477c.076.183.148.367.215.554a2.238,2.238,0,0,0,.919,1.2,1.489,1.489,0,0,0,.744.237,1.512,1.512,0,0,0,.8-.035,2.022,2.022,0,0,0,1.195-.92,1.975,1.975,0,0,0,.2-1.541,8.881,8.881,0,0,0-2.069-3.476,2.073,2.073,0,0,0-1.414-.586,2.216,2.216,0,0,0-1.414.586,2.01,2.01,0,0,0-.586,1.414,2.056,2.056,0,0,0,.586,1.414Z"/><path class="d" d="M414.442,111.137A16.41,16.41,0,0,0,416.8,117.7a14.243,14.243,0,0,0,4.232,3.712c3.628,2.253,7.7,3.743,11.632,5.369a2.011,2.011,0,0,0,2.46-1.4,2.051,2.051,0,0,0-1.4-2.461,78.006,78.006,0,0,1-10.27-4.719q-.552-.328-1.086-.687c-.155-.1-.309-.21-.461-.32.013.009-.486-.372-.282-.209q-.435-.348-.835-.738c-.136-.133-.265-.273-.4-.412-.1-.1-.268-.316-.092-.087a13.079,13.079,0,0,1-2-5.681,2.018,2.018,0,0,0-2.46-1.4,2.045,2.045,0,0,0-1.4,2.461Z"/><path class="d" d="M374.652,123.263a72.083,72.083,0,0,0,9.078-3.366c1.216-.589,2.777-1.341,3.463-2.537a8.454,8.454,0,0,0,.68-2.75c.163-.918.327-1.835.486-2.753a2.048,2.048,0,0,0-1.4-2.461,2.025,2.025,0,0,0-2.46,1.4q-.209,1.2-.422,2.394a13.447,13.447,0,0,1-.429,2.336c.023,0,.158-.373.222-.316a3.2,3.2,0,0,0-.318.192c-.215.135-.426.277-.645.407-.488.289-1,.545-1.509.784q-.2.093-.4.183c-.04.018-.482.21-.265.118s-.3.121-.284.116c-.15.061-.3.12-.452.18-.641.251-1.287.488-1.935.718-1.483.525-2.979,1.012-4.474,1.5a2,2,0,1,0,1.063,3.857Z"/><path class="e" d="M389.132,22.63c-12.569,3.691-23,14.32-25.54,26.959a45.435,45.435,0,0,0,.068,15.385,19.864,19.864,0,0,0,2.1,5.84c.1-.009.194-.015.294-.019a4.7,4.7,0,0,1,4.193,2.107A146.5,146.5,0,0,0,383.96,63.42l6.95.465a46.694,46.694,0,0,0,23.774-17.124,69.718,69.718,0,0,0,3.841,11.189c1.793,3.4,7.272,10.848,11.613,12.134l3.108.921a5.01,5.01,0,0,1,2.049-.363,5.606,5.606,0,0,1,1.893.367c2.471-6.26,1.129-16.485.058-21.632a31.949,31.949,0,0,0-2.595-7.556,29.231,29.231,0,0,0-6.613-9.254L422.4,27.6l-.273-.177a40.975,40.975,0,0,0-6.774-3.517,45.517,45.517,0,0,0-14.994-2.622A33.558,33.558,0,0,0,389.132,22.63Z"/><path class="d" d="M433.2,73.351a3.085,3.085,0,0,1,2.661-.65,2.721,2.721,0,0,1,1.229.521c-.21-.157.609.747.314.319,1.1,1.6,1.131,3.854.972,5.758a14.5,14.5,0,0,1-1.755,5.52c-1.089,2.019-2.753,4.107-5.276,3.785a2.01,2.01,0,0,0-2,2,2.049,2.049,0,0,0,2,2c5.618.717,9.04-5.371,10.433-9.912,1.242-4.051,1.212-10.391-2.76-12.984a7.259,7.259,0,0,0-8.647.814c-1.921,1.722.916,4.543,2.829,2.829Z"/><path class="d" d="M429.6,87.722a31.431,31.431,0,0,1-1.406,4.726c-.2.517-.423,1.01-.628,1.526s.116-.232-.054.133c-.067.143-.132.288-.2.431a40.1,40.1,0,0,1-3.447,5.766c-3.027,4.31-7.166,9.012-12.5,10.278-2.5.594-1.444,4.452,1.063,3.857,6.2-1.472,10.971-6.667,14.556-11.643a41.143,41.143,0,0,0,3.746-6.163,29.355,29.355,0,0,0,1.159-2.7,31.186,31.186,0,0,0,1.569-5.147c.519-2.512-3.336-3.587-3.857-1.063Z"/><path class="d" d="M367.879,88.811c2.7,11.713,11.529,24.473,24.2,26.356a2.066,2.066,0,0,0,2.46-1.4,2.014,2.014,0,0,0-1.4-2.46c-11.378-1.691-18.99-13.068-21.407-23.562-.578-2.508-4.435-1.446-3.857,1.063Z"/><path class="d" d="M393.629,98.573a13.117,13.117,0,0,0,6.316,1.458,10.372,10.372,0,0,0,6.451-1.95,2,2,0,0,0,0-2.828,2.062,2.062,0,0,0-2.829,0c.681-.533-.088.03-.309.146-.167.089-.646.239-.039.04-.175.057-.344.133-.52.19-.221.072-.446.133-.673.186-.1.024-.714.216-.783.15.072.069.38-.043-.029,0-.143.015-.286.027-.429.037-.345.023-.69.032-1.036.031q-.464,0-.927-.031c-.142-.01-.283-.021-.425-.035s-.578.021-.095-.006a4.566,4.566,0,0,1-1.362-.3c-.19-.056-.379-.119-.565-.188-.061-.023-.121-.049-.182-.071-.349-.123.457.216.148.062-.231-.116-.465-.224-.693-.344a2,2,0,0,0-2.019,3.454Z"/><path class="d" d="M398.708,83.93a28.841,28.841,0,0,1,.681,3.083l-.072-.531a1.838,1.838,0,0,1,.013.426l.071-.532a1.042,1.042,0,0,1-.046.191l.2-.477a.774.774,0,0,1-.067.123l.313-.4a.682.682,0,0,1-.1.1l.4-.313a2.036,2.036,0,0,1-.244.13l.478-.2a1.755,1.755,0,0,1-.412.121l.532-.071a1.616,1.616,0,0,1-.387,0l.532.071c-.323-.044-.642-.1-.966-.145a1.984,1.984,0,0,0-1.414.585,2,2,0,0,0,0,2.829l.4.313a2.011,2.011,0,0,0,1.01.273l.036,0-.531-.071a7.6,7.6,0,0,0,1.113.154,3.658,3.658,0,0,0,1.69-.438,2.491,2.491,0,0,0,1.3-1.659,4.109,4.109,0,0,0-.031-1.7c-.174-.984-.4-1.96-.655-2.926a2,2,0,0,0-2.46-1.4,2.03,2.03,0,0,0-1.2.919,2.1,2.1,0,0,0-.2,1.541Z"/><path class="d" d="M382.783,75.123c-.511,1.675-.167,5.525,3,5.846,4.191-.034,4.4-4.69,2.988-6.876C387.617,72.3,384.218,71.565,382.783,75.123Z"/><path class="d" d="M416.348,75.049c.519,1.673.192,5.524-2.978,5.859-4.192-.016-4.426-4.671-3.02-6.863C411.5,72.25,414.9,71.5,416.348,75.049Z"/><path class="d" d="M423.14,25.7c-6.443-4.14-13.56-5.936-21.15-6.342a39.221,39.221,0,0,0-18.475,3.253C372.6,27.5,363.429,37.947,361.5,49.954c-1.09,6.794-.944,14.606,2.007,20.935a2.016,2.016,0,0,0,2.737.717,2.045,2.045,0,0,0,.717-2.736c-2.35-5.04-2.316-11.335-1.746-16.746a30.568,30.568,0,0,1,5.911-14.533c6.485-8.916,17.434-14.672,28.51-14.338a53.334,53.334,0,0,1,11,1.284,34.365,34.365,0,0,1,10.482,4.612c2.172,1.395,4.18-2.066,2.019-3.454Z"/><path class="d" d="M410.578,93.341a19,19,0,0,1,.925,1.891l-.2-.477a18.7,18.7,0,0,1,.807,2.36,2.066,2.066,0,0,0,.92,1.2,2,2,0,0,0,2.736-.717l.2-.478a2.018,2.018,0,0,0,0-1.063l-.05-.354A1.991,1.991,0,0,0,415,94.5a2.039,2.039,0,0,0-1.541-.2,2.017,2.017,0,0,0-1.195.919l-.2.478a2.018,2.018,0,0,0,0,1.063l.049.354,3.858-1.063a20.8,20.8,0,0,0-1.936-4.73,2,2,0,1,0-3.453,2.019Z"/><path class="d" d="M370.983,70.66a7.3,7.3,0,0,0-7.934-1.175,6.933,6.933,0,0,0-3.631,4.686,17.683,17.683,0,0,0,2.6,13.951c1.8,2.669,4.635,5.072,8.073,4.618a2.066,2.066,0,0,0,2-2,2.011,2.011,0,0,0-2-2c-2.52.333-4.2-1.739-5.3-3.754a14.477,14.477,0,0,1-1.784-5.511c-.167-1.905-.146-4.159.942-5.764-.256.378.057-.057.114-.118,0-.006.425-.38.2-.206a2.605,2.605,0,0,1,1.083-.5,3.119,3.119,0,0,1,2.808.6c1.919,1.7,4.758-1.114,2.829-2.828Z"/><path class="d" d="M435.315,92.716a.981.981,0,0,1,.169.057c0,.027-.476-.242-.238-.093.085.053.464.312.161.079s.018.032.087.105c.04.042.075.091.116.131.134.129-.291-.441-.128-.159.059.1.126.2.181.305.009.019.087.146.078.162s-.183-.5-.1-.228a5.012,5.012,0,0,1,.189.794l-.071-.532a3.859,3.859,0,0,1,0,.905l.071-.532a3.945,3.945,0,0,1-.137.609c-.029.095-.065.187-.1.28-.071.2.232-.5.039-.117a5.575,5.575,0,0,1-.332.55c-.19.287.32-.359.068-.092-.068.072-.131.148-.2.218s-.141.139-.216.2c-.127.113-.382.239.1-.064-.168.106-.326.222-.5.316-.086.046-.182.081-.266.13.5-.29.273-.114.1-.059a4.28,4.28,0,0,1-.707.16l.532-.071a4.709,4.709,0,0,1-1.138,0l.532.071a4.917,4.917,0,0,1-.509-.1c-.1-.026-.2-.055-.3-.088-.078-.026-.378-.148-.051-.01s.01,0-.044-.028c-.077-.039-.153-.081-.227-.125s-.146-.093-.22-.138c-.3-.181.366.3.075.063a2.152,2.152,0,0,0-1.415-.586,2,2,0,0,0-1.414,3.414,6.594,6.594,0,0,0,3.882,1.556,5.854,5.854,0,0,0,3.647-1.023,6.666,6.666,0,0,0,2.458-3.211,5.412,5.412,0,0,0,.014-3.558,4.893,4.893,0,0,0-3.119-3.153,2.018,2.018,0,0,0-2.461,1.4,2.045,2.045,0,0,0,1.4,2.46Z"/><path class="d" d="M364.2,88.453c-2.492,1.106-3.408,4.5-2.477,6.915a6.823,6.823,0,0,0,6.647,4.482A7.006,7.006,0,0,0,372.94,97.8a2,2,0,0,0-2.829-2.828c-.113.115-.232.221-.351.331q-.245.2.121-.09c-.066.047-.132.092-.2.135a4.57,4.57,0,0,1-.418.241l-.108.054q-.291.132.146-.057a2.069,2.069,0,0,0-.457.154c-.155.045-.313.074-.47.11-.392.089.5-.039-.006,0-.141.009-.281.013-.422.011-.08,0-.16-.005-.241-.011q-.327-.031.173.032a4.441,4.441,0,0,0-.467-.1c-.111-.029-.221-.063-.33-.1-.072-.025-.144-.052-.215-.081.3.13.355.15.163.061-.134-.075-.271-.142-.4-.223-.068-.042-.431-.342-.176-.1s-.1-.093-.152-.137c-.113-.1-.222-.213-.325-.326-.051-.057-.1-.115-.151-.174q.289.384.1.132c-.064-.1-.13-.19-.19-.288-.081-.131-.147-.268-.221-.4q-.132-.288.063.162-.042-.106-.078-.216a3.865,3.865,0,0,1-.115-.412c-.042-.193.024-.443,0,.118.01-.28-.021-.559,0-.842.023-.385-.1.466-.01.116.034-.136.061-.271.1-.405.021-.066.043-.132.067-.2q.114-.289-.081.193c.078-.1.125-.247.195-.358.127-.2.249-.2-.077.077a3.633,3.633,0,0,0,.276-.292c.224-.235-.439.278,0,.009a3.04,3.04,0,0,1,.363-.188,2,2,0,0,0,.92-1.195,2.047,2.047,0,0,0-.2-1.541,2.017,2.017,0,0,0-1.195-.919,2.309,2.309,0,0,0-1.541.2Z"/><path class="d" d="M412.828,47.572c1.415,5.051,2.87,10.128,5.889,14.477,2.679,3.859,6.223,8.48,10.889,9.964,2.459.782,3.512-3.079,1.064-3.857a12.616,12.616,0,0,1-4.587-3.357,37.568,37.568,0,0,1-4.229-5.233c-2.658-3.939-3.9-8.524-5.169-13.058-.694-2.475-4.554-1.423-3.857,1.064Z"/><path class="d" d="M392.017,53.33c-6.027,6.754-13.65,12.109-21.271,16.907-2.173,1.368-.168,4.831,2.019,3.454,7.89-4.968,15.841-10.541,22.08-17.533,1.709-1.915-1.11-4.754-2.828-2.828Z"/><path class="d" d="M413.015,45.675a45.681,45.681,0,0,1-22.636,16.282c-2.442.783-1.4,4.646,1.063,3.857a50.278,50.278,0,0,0,25.027-18.12,2.014,2.014,0,0,0-.718-2.737,2.048,2.048,0,0,0-2.736.718Z"/><path class="d" d="M438.989,71.849c2.55-6.225,1.741-13.783.692-20.251-1.223-7.539-4.456-15.245-10.228-20.445-1.909-1.719-4.746,1.1-2.829,2.828,5.309,4.783,8.078,11.764,9.2,18.68.941,5.8,1.591,12.552-.692,18.125a2.013,2.013,0,0,0,1.4,2.46,2.049,2.049,0,0,0,2.46-1.4Z"/><path class="a" d="M438.657,234.974a43.507,43.507,0,0,0-3.815-28.588,18.808,18.808,0,0,0-3.777-5.1,31.8,31.8,0,0,1-5.93,2.885,25.272,25.272,0,0,1-4.578,1.082l.153-1.22c3.185-25.439,6.092-60.506,7.444-78.74l.308-4.566,0-.061c10.021,4.287,20.564,8.485,25.941,17.956,3.252,5.727,4.154,12.448,5,18.98l4.157,32.266c.921,9.739.753,19.732-2.05,26.112Z"/><path class="a" d="M364.737,234.618c1.791-9.543,4.478-18.891,7.4-24.294A9.522,9.522,0,0,1,374.9,206.8l.038-2.243c.445-26.138.337-65.671.988-84.751l-13.852,6.684a36.387,36.387,0,0,0-8.935,5.428c-4.74,4.317-6.84,10.749-8.6,16.914a390.811,390.811,0,0,0-9.926,44.966c-.821,3.668-2.51,12.412-3.322,17.979-.4,2.776-.664,6.447.252,9.1,1.172,3.389,3.025,5.489,6.914,7.194Z"/><path class="d" d="M427.117,122.244c5.78,2.477,11.7,4.845,16.929,8.384a27.045,27.045,0,0,1,11.114,14.958c2.137,7.174,2.613,14.888,3.566,22.282L460.3,180.09c.518,4.025,1.151,8.052,1.458,12.1a85.953,85.953,0,0,1,.131,12.635,31.66,31.66,0,0,1-2.106,10.146,2.067,2.067,0,0,0,.718,2.736,2.013,2.013,0,0,0,2.736-.718c2.818-6.57,3.035-14.049,2.74-21.094-.351-8.4-1.8-16.766-2.873-25.094l-1.638-12.711a104.728,104.728,0,0,0-1.88-11.453,31.106,31.106,0,0,0-10.745-17.415c-5.873-4.679-12.864-7.5-19.7-10.432a2.067,2.067,0,0,0-2.736.718,2.014,2.014,0,0,0,.717,2.736Z"/><path class="d" d="M436.323,165.765c.531,5.636.925,11.272-1.49,16.552-.824,1.8-1.812,3.522-2.6,5.343a20.431,20.431,0,0,0-1.662,6.8c-.174,2.569,3.827,2.558,4,0,.284-4.19,2.656-7.557,4.234-11.324,2.341-5.589,2.07-11.453,1.513-17.369a2.055,2.055,0,0,0-2-2,2.014,2.014,0,0,0-2,2Z"/><path class="d" d="M359.993,157.5c-.313,6.363-.637,12.731-.614,19.1s.424,12.732.895,19.084c.19,2.551,4.191,2.572,4,0-.471-6.352-.873-12.712-.895-19.084s.3-12.74.614-19.1c.127-2.573-3.874-2.566-4,0Z"/><path class="d" d="M374.9,118.089q-6.916,3.339-13.834,6.676c-3.953,1.909-7.934,3.946-10.869,7.3-5.711,6.54-7.564,15.808-9.7,23.975q-3.771,14.4-6.41,29.073c-.711,3.913-1.366,7.827-2.151,11.725q-1.108,5.5-2.04,11.037c-.71,4.259-1.657,8.932-.391,13.177a13.74,13.74,0,0,0,7.946,8.741,2.062,2.062,0,0,0,2.736-.717,2.015,2.015,0,0,0-.717-2.737c-2.943-1.321-5.157-3.176-6.108-6.35-1.024-3.415-.235-7.259.332-10.693,1.17-7.094,2.655-14.13,3.907-21.208q2.469-13.946,5.908-27.7c1.11-4.406,2.272-8.807,3.584-13.157a38.735,38.735,0,0,1,4.569-10.549c2.6-3.886,6.523-6.091,10.635-8.091,4.868-2.366,9.749-4.7,14.623-7.057,2.318-1.118.291-4.569-2.019-3.454Z"/><path class="d" d="M374.922,210.122c4.1,1.989,8.674,2.546,13.174,2.829,2.088.132,4.181.2,6.273.277,1,.036,1.994.069,2.989.145.355.028.714.052,1.067.105.22.033.44.078.656.131.065.016.522.18.217.039a2.06,2.06,0,0,0,2.737-.717,2.016,2.016,0,0,0-.718-2.737,14.32,14.32,0,0,0-5.375-.9c-2.094-.1-4.19-.15-6.284-.252-4.248-.207-8.827-.482-12.717-2.37-2.306-1.119-4.337,2.329-2.019,3.454Z"/><path class="d" d="M367.551,225.31c1.573.226,3.157.305,4.738.451.171.016.76.166.476.059a1.4,1.4,0,0,1,.441.367,15.984,15.984,0,0,0,2.215,2.1c3.062,2.324,6.833,3.17,10.53,3.865a2.053,2.053,0,0,0,2.46-1.4,2.019,2.019,0,0,0-1.4-2.461c-3.389-.637-7.181-1.28-9.823-3.7-.656-.6-1.159-1.341-1.867-1.884a4.844,4.844,0,0,0-2.569-.908c-.744-.083-1.492-.13-2.238-.189-.372-.029-.745-.058-1.118-.091-.189-.017-.379-.035-.568-.054-.1-.011-.7-.089-.217-.02a2.066,2.066,0,0,0-2.46,1.4,2.015,2.015,0,0,0,1.4,2.46Z"/><path class="d" d="M430.056,199.559a23.936,23.936,0,0,1-10.226,3.724c-3.773.412-7.578.329-11.339.888-3.161.47-7.852,1.6-9.322,4.8a4.253,4.253,0,0,0,1.227,5.262,5.139,5.139,0,0,0,2.538.965c1.051.116,2.14-.15,3.178.042l-.883-3.343c-4.47,3.879-9.226,7.4-13.8,11.158-1.985,1.63-4.773,3.053-5.083,5.846a5.236,5.236,0,0,0,4.977,6.014c2.574.008,2.578-3.992,0-4-.72,0-1.023-.682-1.029-1.368-.007-.785.6-.97,1.2-1.444,1.774-1.388,3.491-2.846,5.237-4.268,3.759-3.06,7.656-5.93,11.321-9.109a2.012,2.012,0,0,0-.883-3.343,11.711,11.711,0,0,0-2.631-.158c-.379.013-1.576.217-1.867-.244-.345-.546,1.738-1.509,2.091-1.67,2.774-1.265,5.931-1.472,8.931-1.633a62.261,62.261,0,0,0,9.553-.916,27.47,27.47,0,0,0,8.823-3.75c2.169-1.373.164-4.836-2.019-3.454Z"/><path class="d" d="M404.238,223.32q-4.551,3.03-9.229,5.862c-2.894,1.746-7.452,3.4-7.247,7.475a5.2,5.2,0,0,0,7.028,4.7,42.2,42.2,0,0,0,7.986-4.1c2.793-1.7,5.578-3.451,8.239-5.358a2.056,2.056,0,0,0,.718-2.736,2.018,2.018,0,0,0-2.737-.718,90.448,90.448,0,0,1-13.275,8.154c-.433.208-.863.421-1.3.622a5.2,5.2,0,0,1-.971.375c-.737.222-1.226.232-1.574-.577-.472-1.1.506-1.638,1.333-2.126,1.372-.809,2.748-1.606,4.111-2.431q4.531-2.742,8.936-5.684c2.133-1.42.132-4.886-2.019-3.454Z"/><path class="d" d="M395.338,242.409a10.388,10.388,0,0,0,6.519,1.511,13.314,13.314,0,0,0,5.123-1.627,56.832,56.832,0,0,0,8.539-5.463,2.009,2.009,0,0,0,0-2.828,2.051,2.051,0,0,0-2.828,0c.488-.379-.222.158-.343.244-.266.192-.536.381-.806.567q-.874.6-1.766,1.176c-1.389.9-2.8,1.763-4.257,2.552-.6.327-1.213.628-1.834.918-.351.165.171-.055-.038.014-.112.038-.221.084-.333.122a7.11,7.11,0,0,1-1.177.294,6.884,6.884,0,0,1-4.78-.934,2,2,0,0,0-2.019,3.454Z"/><path class="d" d="M404.337,244.064c3.661,2.129,8.521.059,12.013-1.555s6.248-4.42,8.659-7.365a94.456,94.456,0,0,1,6.98-8.263,40.749,40.749,0,0,1,7.306-5.168c2.189-1.346.182-4.807-2.019-3.454a51.285,51.285,0,0,0-7.264,5,53.443,53.443,0,0,0-6.329,7.174c-2.115,2.683-4.3,5.528-7.19,7.424a21.344,21.344,0,0,1-5.04,2.264c-1.547.518-3.551,1.385-5.1.486-2.229-1.3-4.245,2.159-2.018,3.454Z"/><path class="d" d="M429.651,202.7c3.981,3.689,5.907,9.614,7.016,14.779a41.364,41.364,0,0,1,.062,16.964c-.518,2.512,3.337,3.587,3.857,1.063a46.337,46.337,0,0,0-.062-19.09c-1.247-5.817-3.576-12.4-8.045-16.544-1.886-1.747-4.721,1.075-2.828,2.828Z"/><path class="d" d="M366.892,205.23c3.125.955,6.273,1.893,9.343,3.018v-3.857a10.944,10.944,0,0,0-5.829,4.924,45.366,45.366,0,0,0-2.95,6.867,119.411,119.411,0,0,0-4.647,17.905c-.477,2.515,3.378,3.593,3.857,1.063a125.824,125.824,0,0,1,4.113-16.355,51.785,51.785,0,0,1,2.429-6.18c.92-1.905,2.027-3.58,4.09-4.367a2.02,2.02,0,0,0,0-3.857c-3.069-1.125-6.217-2.063-9.343-3.018-2.467-.755-3.522,3.105-1.063,3.857Z"/><path class="d" d="M422.71,204.033c2.973-23.8,5.04-47.721,6.9-71.63q.454-5.836.849-11.676c.174-2.569-3.827-2.559-4,0-1.417,20.972-3.267,41.928-5.435,62.835-.709,6.831-1.466,13.657-2.317,20.471a2.01,2.01,0,0,0,2,2,2.049,2.049,0,0,0,2-2Z"/><path class="d" d="M373.9,120.349c-.7,21.8-.548,43.639-.738,65.45q-.083,9.381-.227,18.76c-.043,2.575,3.957,2.576,4,0,.388-22.951.324-45.908.642-68.86.071-5.117.158-10.235.323-15.35.082-2.574-3.918-2.572-4,0Z"/><path class="d" d="M424.992,126.817a68.868,68.868,0,0,1-13.517,3.15c-8.439.817-16.931-.192-25.267-1.5-2.656-.415-5.308-.845-7.968-1.236a2.067,2.067,0,0,0-2.46,1.4,2.016,2.016,0,0,0,1.4,2.461c14.2,2.083,29.3,5.433,43.453,1.234,1.812-.538,3.617-1.1,5.425-1.654,2.456-.749,1.409-4.611-1.063-3.857Z"/><path class="d" d="M236.621,136.307c2.186-6.048,5.139-11.994,10.307-16.067a46.6,46.6,0,0,1,8.33-4.79c2.94-1.463,5.9-2.892,8.914-4.194,3.552-1.532,7.2-2.835,10.879-4.022,2.44-.787,1.4-4.65-1.064-3.857A146.4,146.4,0,0,0,254,111.62a54.96,54.96,0,0,0-8.848,4.978,31.642,31.642,0,0,0-7.5,8.217,49.284,49.284,0,0,0-4.886,10.428c-.876,2.425,2.988,3.47,3.857,1.064Z"/><path class="a" d="M229.575,73.528a4.878,4.878,0,0,1,3.53-1.277,4.524,4.524,0,0,1,4.055,2.274c1.372,2.4,1.3,6.814.359,9.542a14.739,14.739,0,0,1-4.352,7,5.377,5.377,0,0,1-4.149,1.18l-.4-.069a31.593,31.593,0,0,1-1.441,3.865c-1.018,2.728-6.416,11.987-13.335,16.192.038-.438.077-.068.116.166a19.406,19.406,0,0,0,2.144,7.072c2.167,3.514,9.478,6.275,14.907,8.52l-7.113,3.648c-4.584,2.526-9.1,4.694-22.45,4.989-11.288.25-18.4-1.31-28.811-6.236l-6.686-3.9c6.555-2.345,13.129-4.014,16.282-6.129a2.971,2.971,0,0,0,1.01-.774,2.328,2.328,0,0,0,.251-.813q.508-2.856,1.016-5.707a27.76,27.76,0,0,1-9.583-7.828,37.081,37.081,0,0,1-6.985-13.3,5.275,5.275,0,0,1-4.479-1.142,14.73,14.73,0,0,1-4.3-7.03c-.916-2.735-.958-7.149.433-9.539a4.525,4.525,0,0,1,4.073-2.242,4.877,4.877,0,0,1,3.52,1.3S158.808,46.5,198.36,46.5,229.575,73.528,229.575,73.528Z"/><path class="a" d="M116.262,55.823a5.137,5.137,0,0,1,3.756-1.239,4.768,4.768,0,0,1,4.2,2.515c1.373,2.569,1.162,7.215.094,10.059a15.527,15.527,0,0,1-4.792,7.239,5.659,5.659,0,0,1-4.4,1.12l-.417-.085a33.277,33.277,0,0,1-1.632,4.028A44.612,44.612,0,0,1,105.117,90.8c-6.748,4.158-9.369,12.721-9.383,20.286-.036,1.292-.1,2.581-.182,3.851-14.045,4.874-28.487,2.24-40.024-8.024,3.051-1.164,6.728-2.584,6.851-2.619,2.319-.864,3.113-2.769,3.58-4.815a34.434,34.434,0,0,0,.687-3.88A30.288,30.288,0,0,1,57.77,87.59a39.05,39.05,0,0,1-6.96-14.217,5.555,5.555,0,0,1-4.684-1.334,15.533,15.533,0,0,1-4.317-7.532c-.884-2.907-.8-7.557.74-10.032a4.766,4.766,0,0,1,4.356-2.24,5.133,5.133,0,0,1,3.668,1.478S38.985,22.948,83.935,22.948,116.262,55.823,116.262,55.823Z"/><path class="d" d="M113.472,72.51a30.7,30.7,0,0,1-1.7,5.039c-.1.24-.221.475-.331.713a5.361,5.361,0,0,0-.3.666c.128-.3.146-.344.056-.139-.155.33-.314.657-.484.98a42.4,42.4,0,0,1-3.823,5.89c-3.387,4.446-7.931,9.206-13.63,10.352-2.522.507-1.454,4.364,1.063,3.857,6.5-1.307,11.694-6.578,15.592-11.63a37.746,37.746,0,0,0,7.413-14.665c.606-2.5-3.25-3.568-3.857-1.063Z"/><path class="a" d="M101.4,93.943c-4.017,4.56-5.657,11.163-5.668,17.142-.088,3.105-.351,6.2-.528,9.041-.289,4.695.5,9.121,3.578,12.363,3.264,3.437,6.665,5.628,11.309,3.893,2.8-1.838,7.09-2.725,10.561-3.247a20.437,20.437,0,0,1,14.43,3.331,23.914,23.914,0,0,0,9.933-11.009,38.548,38.548,0,0,0,2.328-16.394c-1.1-15.776-15.567-22.273-29.987-21.648a25.8,25.8,0,0,0-11.983,3.223A16.394,16.394,0,0,0,101.4,93.943Z"/><path class="a" d="M59.272,241.866a204.914,204.914,0,0,1-37.982-7.172c-8.2-2.6-13.5-9.027-16.619-15.341C1.3,212.524,1.8,199.116,2.831,192.662c2.495-15.591,4.085-23.729,7.078-39.085,1.224-6.276,3.524-19.379,9.167-26.954,4.178-5.607,10.972-9.7,18.6-13.129,5.646-2.536,11.745-4.7,17.572-6.846,11.581,10.484,26.147,13.2,40.31,8.288-.11,1.781-.243,3.528-.347,5.19-.289,4.695.5,9.121,3.578,12.363,2.876,3.028,5.858,5.089,9.7,4.35l1.009-.194c-5.189,2.845-9.808,6.221-13.176,12.163a42.118,42.118,0,0,0-4.851-7.938,8.814,8.814,0,0,0,.828-5.809c-.321-1.565-1.367-3.234-2.962-3.315-1.279-.064-2.347.907-3.252,1.813-2.508-2.947-6.062-5.562-9.9-5.08-4.173.525-7.2,4.873-7.055,9.076.159,4.783,3.693,9.043,7.887,11.189-.875,5.824,3.24,21.21,4.77,26.4.969,3.285,2.375,6.73,5.36,8.639a12.244,12.244,0,0,0,5.27,1.68l-.445,1.427c-7.372.762-12.713,9.5-10.026,16.412l1.223,2.984c.128,2.926.251,5.751.251,5.751.372,8.563-1.152,23.947-1.924,31.031C73.628,243.021,66.15,242.561,59.272,241.866Z"/><path class="a" d="M232.885,236.247c-12.34,0-35.62-.043-57.866-.091-28.462-.062-55.233-.132-55.233-.132,2.341-22.272,9.122-79.487,9.122-79.487l18.732-18.1a50.741,50.741,0,0,1,10.945-8.755,38.6,38.6,0,0,1,7.32-3.221l6.733,3.932c10.414,4.926,17.523,6.486,28.811,6.236,13.354-.3,17.866-2.463,22.45-4.989l7.113-3.648a95.449,95.449,0,0,1,16.658,8,28.692,28.692,0,0,1,10.854,12.7,83.472,83.472,0,0,1,4.283,12.722c2.569,9.252,5.329,18.482,6.912,27.969,1.409,8.448,2.93,19.239-.845,27.259-2.4,5.1-6.645,9.033-10.925,12.569C257.949,229.2,243.9,232.373,232.885,236.247Z"/><path class="a" d="M230.159,182.538a3.845,3.845,0,0,1,3.076-.9,3.631,3.631,0,0,1,2.61,1.736,5.12,5.12,0,0,1,.538,2.064,15.375,15.375,0,0,1-1.569,8.153,9.767,9.767,0,0,1-2.527,3.318,2.98,2.98,0,0,1-3.393.532,26.042,26.042,0,0,1-.8,2.487c-.875,2.216-5.771,10.076-11.928,12.952.035.282.088.6.149.96.327,1.9.856,4.039,3.378,5.432.167.053,3.456,1.614,3.712,1.728l.977.438-.222.278c-2.762,3.456-9.247,6.4-15.832,6.8a45.111,45.111,0,0,1-11.888-.81,19.529,19.529,0,0,1-10.429-5.411l-.625-.671,1.5-.627c.273-.114,3.544-1.675,3.73-1.728,2.5-1.393,3.042-3.536,3.368-5.432.027-.115.044-.22.062-.326a24.529,24.529,0,0,1-8.625-6.415,27.658,27.658,0,0,1-5.618-9.718,3.077,3.077,0,0,1-3.85-.314,9.792,9.792,0,0,1-2.528-3.318,15.385,15.385,0,0,1-1.568-8.153,5.124,5.124,0,0,1,.538-2.065A3.628,3.628,0,0,1,175,181.8a3.842,3.842,0,0,1,3.076.9s-6.37-23.179,23.179-23.179S230.159,182.538,230.159,182.538Z"/><path class="f" d="M166.147,234.811a45.961,45.961,0,0,0-4.547,10.2h88.123a56.738,56.738,0,0,0-9.054-14.561c-3.179-3.767-9.478-7.118-15.97-9.5-2.358,3.776-9.307,7.137-16.37,7.565a45.111,45.111,0,0,1-11.888-.81c-4.206-.875-8.325-2.773-11.054-6.131-5.924,2.329-13.171,5.646-15.958,8.873A37.176,37.176,0,0,0,166.147,234.811Z"/><path class="f" d="M225.373,33.351a63.126,63.126,0,0,0-6.726-5.373,37.6,37.6,0,0,0-5.249-2.712,34.236,34.236,0,0,0-15.018-2.72c-17.2-1.012-33.659,11.863-37.043,28.157-.919,4.4-.565,11.2-.068,14.767a21.992,21.992,0,0,0,1.539,5.826l.345.722c.164-.019.338-.031.519-.037a4.922,4.922,0,0,1,3.341,1.14c3.057-3.6,6.583-5.182,12.31-7.545a14.8,14.8,0,0,0,1.7-.745l.833,0a1.617,1.617,0,0,0,.7,1.727,6.107,6.107,0,0,0,2.4.325,15.716,15.716,0,0,0,8.282-1.949h4.579c-.2.647,0,1.409,1.143,1.569a13.628,13.628,0,0,0,8.855-2.26,19.213,19.213,0,0,0,4.853-5.613,22.9,22.9,0,0,0,2.687-7.448h2.9c.544,4.4,2.318,8.55,4.217,12.558,1.141,2.41,2.543,4.993,5.027,5.965l2.075,3.825a4.878,4.878,0,0,1,3.53-1.277,5.513,5.513,0,0,1,1.909.39c2.5-6.273,1.217-16.5.176-21.651a31.993,31.993,0,0,0-2.555-7.593A31.659,31.659,0,0,0,225.373,33.351Z"/><path class="g" d="M215.97,150.985c.642-4.507,4.316-6.442,8.377-7.018,4.264-.6,7.262.512,10.671,3.556a11.459,11.459,0,0,1,2.866,4.027,38.855,38.855,0,0,1,2.043,6.787c.687,3.106,1.39,5.085,3.508,7.261-3.777,1.178-7.065,1.409-10.156.116"/><path class="g" d="M180.062,183.588c-.244.1-.343-.313-.277-.568a22,22,0,0,1,3.875-8.117,15.073,15.073,0,0,1,10.3-5.951,18.193,18.193,0,0,0,5.968,5.327,4.037,4.037,0,0,0,1.574.6h17.555a15.98,15.98,0,0,1,2.2.8,11.7,11.7,0,0,1,6.492,8.406l.1.544,2.316-2.09a3.791,3.791,0,0,1,2.816-.919,37.887,37.887,0,0,0,.532-8.228,28.236,28.236,0,0,0-4.065-13.674,26.874,26.874,0,0,0-3.74-4.731c-.569-.575-1.434-1.416-2.023-1.928a33.67,33.67,0,0,0-4.921-3.264,28.975,28.975,0,0,0-4.3-1.927,30.594,30.594,0,0,0-10.188-1.671,29.1,29.1,0,0,0-17.262,5.312,27.741,27.741,0,0,0-11.973,21.883,41.7,41.7,0,0,0,.721,8.37,3.809,3.809,0,0,1,2.32.935"/><path class="d" d="M54.113,108.326a42.741,42.741,0,0,0,20.465,10.3,42.96,42.96,0,0,0,22.556-2.139c2.394-.884,1.359-4.751-1.063-3.857a39.014,39.014,0,0,1-20.43,2.139,38.855,38.855,0,0,1-18.7-9.27c-1.925-1.7-4.764,1.122-2.829,2.828Z"/><path class="g" d="M45.944,29.69a39.464,39.464,0,0,1,15.4-20.555A38.542,38.542,0,0,1,85.006,2.413a38.736,38.736,0,0,1,21.7,7.142l4.983,4.086c6.173,5.947,11.627,15.085,11.76,28.311a41.865,41.865,0,0,1-1.982,12.891,6.372,6.372,0,0,0-1.451-.259,5.137,5.137,0,0,0-3.756,1.239l-5.077-4.3c-1.546-4.286-5.193-9.085-9.045-12.621a21.088,21.088,0,0,0-5.89-3.973l-6.5-1.011c-4.461,1.713-10.793,5.408-14.338,7.231a1.193,1.193,0,0,1-1.658-1.334,6.3,6.3,0,0,0-.076-2.294c-.2-.964-.923-1.394-1.5-1.112-4.962,2.4-12.128,8.8-16.208,13.059l-5.392,4.24a5.133,5.133,0,0,0-3.668-1.478,6.214,6.214,0,0,0-1.61.2A43.364,43.364,0,0,1,44.1,39.4,42.537,42.537,0,0,1,45.944,29.69Z"/><path class="d" d="M51.988,52.3a7.542,7.542,0,0,0-7.971-1.524,7.257,7.257,0,0,0-4.148,4.884,18.591,18.591,0,0,0,2.285,14.73c1.8,2.868,4.692,5.4,8.295,5.051a2.056,2.056,0,0,0,2-2,2.013,2.013,0,0,0-2-2c-2.7.262-4.427-2.1-5.517-4.274a15.42,15.42,0,0,1-1.662-5.949,13.558,13.558,0,0,1,.235-3.647,8.342,8.342,0,0,1,.407-1.4c.1-.238.243-.454.364-.682.035-.066.318-.446.038-.092a2.622,2.622,0,0,1,1.812-1.1,3.415,3.415,0,0,1,3.033.833c1.865,1.774,4.7-1.05,2.829-2.829Z"/><path class="d" d="M117.677,57.238a3.37,3.37,0,0,1,2.96-.548,3.456,3.456,0,0,1,1.088.469c.015.011.263.248.355.336q.1.1.192.216c-.11-.145-.127-.163-.049-.053,1.127,1.716,1.1,4.132.86,6.1a15.723,15.723,0,0,1-1.976,5.707c-1.035,1.849-3,4.526-5.456,4.127a2.062,2.062,0,0,0-2.46,1.4,2.016,2.016,0,0,0,1.4,2.46c6.156,1,9.909-4.826,11.7-9.879,1.484-4.188,1.681-10.813-2.336-13.707a7.535,7.535,0,0,0-9.105.55,2.016,2.016,0,0,0,0,2.829,2.045,2.045,0,0,0,2.829,0Z"/><path class="d" d="M48.309,71.362C50.726,83.8,59.605,97.5,72.877,99.937c2.517.461,3.6-3.393,1.063-3.857-11.985-2.2-19.6-14.607-21.774-25.781-.49-2.525-4.346-1.456-3.857,1.063Z"/><path class="d" d="M107.718,7.828a42.727,42.727,0,0,0-40.027-4.4,41.939,41.939,0,0,0-23.2,24.314,44.35,44.35,0,0,0-1.265,24.626c.555,2.513,4.412,1.45,3.857-1.063C44.419,39.235,47.07,26.317,55.422,17A38.944,38.944,0,0,1,66.946,8.135,38.835,38.835,0,0,1,105.7,11.282c2.119,1.471,4.121-1.994,2.019-3.454Z"/><path class="d" d="M123.552,54.83a45.89,45.89,0,0,0,.155-25.278,38.843,38.843,0,0,0-10.286-16.988c-1.849-1.794-4.68,1.032-2.829,2.829a34.726,34.726,0,0,1,9.258,15.223,41.847,41.847,0,0,1-.155,23.15c-.691,2.484,3.167,3.544,3.857,1.064Z"/><path class="d" d="M77.275,82.621a13.714,13.714,0,0,0,6.466,1.714,10.639,10.639,0,0,0,6.479-1.527,2.049,2.049,0,0,0,.717-2.737,2.022,2.022,0,0,0-2.736-.717,4.888,4.888,0,0,1-.689.419c-.069.035-.141.063-.209.1-.2.11.47-.179.152-.064-.2.071-.395.143-.6.2-.232.068-.468.126-.706.175-.119.025-.239.047-.359.067-.237.04-.268.028-.012,0a16.526,16.526,0,0,1-2.039.076q-.5-.015-.99-.061c-.053,0-.655-.087-.179-.013-.136-.022-.272-.043-.408-.067a10.749,10.749,0,0,1-1.448-.36c-.2-.066-.4-.145-.6-.219-.233-.086.44.209.148.06-.083-.042-.169-.078-.253-.119-.244-.121-.482-.254-.719-.388a2,2,0,1,0-2.018,3.453Z"/><path class="d" d="M83.175,67.447c.221.965.425,1.942.56,2.924l-.072-.532c.035.258.068.517.106.775l-.072-.531a2.115,2.115,0,0,1,.012.562l.071-.532a1.06,1.06,0,0,1-.056.2l.2-.477a.771.771,0,0,1-.075.127l.312-.4a.462.462,0,0,1-.069.071l.405-.313a1.435,1.435,0,0,1-.3.159l.478-.2a1.951,1.951,0,0,1-.382.106l.532-.072a1.679,1.679,0,0,1-.419,0l.532.071c-.17-.025-.334-.073-.5-.1a2.166,2.166,0,0,0-1.541.2,2,2,0,0,0-.718,2.737,1.949,1.949,0,0,0,1.2.919c.382.064.739.153,1.132.183a3.6,3.6,0,0,0,1.783-.419,2.522,2.522,0,0,0,1.343-1.671,4.284,4.284,0,0,0-.019-1.786l.072.532a35.567,35.567,0,0,0-.649-3.592,2,2,0,1,0-3.857,1.064Z"/><path class="d" d="M66.555,57.53c-.6,1.75-.377,5.828,2.96,6.281,4.427.116,4.82-4.792,3.405-7.151C71.761,54.728,68.2,53.826,66.555,57.53Z"/><path class="d" d="M102,58.669c.487,1.785,0,5.84-3.357,6.078-4.425-.169-4.5-5.092-2.939-7.355C96.98,55.538,100.592,54.867,102,58.669Z"/><path class="d" d="M95.241,36.661a26.222,26.222,0,0,1,8.208,6.413,28.911,28.911,0,0,1,5.808,8.986,2.054,2.054,0,0,0,2.46,1.4,2.017,2.017,0,0,0,1.4-2.46,33.615,33.615,0,0,0-6.642-10.534,29.394,29.394,0,0,0-9.212-7.256,2.056,2.056,0,0,0-2.737.717,2.019,2.019,0,0,0,.718,2.737Z"/><path class="d" d="M57.379,50.887a94.8,94.8,0,0,1,8.379-7.726,53.4,53.4,0,0,1,4.4-3.264c.728-.479,1.471-.938,2.238-1.352q.263-.142.529-.276-1.44-.985-1.175-.212a7.449,7.449,0,0,0,.058,1.254c-.141,2.054.99,4.089,3.32,3.945,1.585-.1,3.363-1.47,4.722-2.206a94.125,94.125,0,0,1,10.433-5.2,2.059,2.059,0,0,0,1.4-2.46,2.013,2.013,0,0,0-2.46-1.4A99.27,99.27,0,0,0,78.155,37.42c-.814.441-1.627.883-2.443,1.319-.163.087-1.009.4-1.064.561a1,1,0,0,1,1.106.52,6.809,6.809,0,0,0,.065-.682c.08-1.976-.628-4.5-2.928-4.769-1.653-.2-3.436,1.207-4.753,2.074-1.7,1.12-3.322,2.363-4.9,3.642a94.289,94.289,0,0,0-8.684,7.974c-1.784,1.856,1.041,4.689,2.829,2.828Z"/><path class="d" d="M56.059,108.841q2.477-.945,4.948-1.9a26.622,26.622,0,0,0,3.076-1.238c3.525-1.893,4.108-6.381,4.547-9.95a2,2,0,0,0-2-2,2.061,2.061,0,0,0-2,2c-.032.249-.035.279-.01.093-.02.137-.04.274-.062.41q-.048.307-.1.612c-.086.482-.182.962-.285,1.44a15.9,15.9,0,0,1-.546,2.06c-.032.091-.067.182-.1.273q.165-.381.03-.079c-.066.128-.125.258-.2.385-.08.147-.174.285-.26.428-.257.427.19-.165-.079.109-.1.1-.2.215-.3.316-.072.068-.145.134-.221.2.209-.155.224-.167.042-.037-.134.083-.263.173-.4.25-.056.032-.58.264-.366.185.191-.07-.044.01-.088.025-.162.058-.322.122-.482.183q-.8.306-1.607.615-2.3.882-4.6,1.761a2.046,2.046,0,0,0-1.4,2.46,2.023,2.023,0,0,0,2.46,1.4Z"/><path class="d" d="M54.329,104.86c-7.666,2.812-15.439,5.524-22.68,9.338-6.369,3.356-12.421,7.753-16.05,14.112-3.543,6.209-5.327,13.359-6.749,20.309C7.35,155.946,5.962,163.3,4.6,170.654,3.138,178.5,1.581,186.384.6,194.3a62.8,62.8,0,0,0,.531,20.677,30.84,30.84,0,0,0,11.184,17.174c4.55,3.539,9.925,5.042,15.417,6.4a230.6,230.6,0,0,0,44.843,6.289q3.6.162,7.211.211c2.574.037,2.576-3.963,0-4a232.167,232.167,0,0,1-46.512-5.313A80.334,80.334,0,0,1,20.11,232.15c-6.238-2.558-11.327-8.187-13.96-14.336a29.286,29.286,0,0,1-1.9-9.235,72.917,72.917,0,0,1-.023-10.23c.462-7.18,2.012-14.356,3.282-21.45,1.376-7.686,2.886-15.347,4.374-23.012a108.756,108.756,0,0,1,4.727-18.346,30.2,30.2,0,0,1,4.823-8.689,33.749,33.749,0,0,1,7.642-6.533c6.432-4.143,13.648-6.924,20.79-9.572,1.841-.682,3.686-1.354,5.529-2.03,2.4-.879,1.361-4.746-1.063-3.857Z"/><path class="d" d="M40.618,161.98c-1.5,11.913-3.621,23.758-5.608,35.6a2.059,2.059,0,0,0,1.4,2.46,2.015,2.015,0,0,0,2.46-1.4c2.046-12.193,4.208-24.391,5.751-36.66a2.01,2.01,0,0,0-2-2,2.049,2.049,0,0,0-2,2Z"/><path class="d" d="M192.042,213.505c0,.044.1-.6.043-.363-.017.069-.028.14-.041.209-.016.087-.03.174-.046.261-.039.206-.079.411-.125.616a9.6,9.6,0,0,1-.346,1.2c-.03.081-.187.467-.039.112.142-.339,0-.011-.038.066a6.018,6.018,0,0,1-.332.6c-.063.1-.131.193-.2.29-.187.277.285-.335.06-.081a7.006,7.006,0,0,1-.519.543c-.1.089-.2.171-.3.257-.16.138.186-.14.174-.134a1.142,1.142,0,0,0-.147.1c-.118.082-.25.149-.364.235-.264.2.23-.062.226-.062a3.732,3.732,0,0,0-.9.389c-.593.271-1.183.55-1.774.828-.5.235-1,.485-1.5.7a2,2,0,0,0-.919,1.2,2.043,2.043,0,0,0,.2,1.541,2.017,2.017,0,0,0,1.195.919,2.348,2.348,0,0,0,1.541-.2c1.091-.466,2.149-1.013,3.228-1.507.1-.047.2-.092.3-.138.346-.158-.519.23-.284.12a6.936,6.936,0,0,0,1.068-.567,10.573,10.573,0,0,0,1-.777,8.044,8.044,0,0,0,2.056-3.06,9.147,9.147,0,0,0,.446-1.418,8.872,8.872,0,0,0,.333-1.875,2,2,0,0,0-4,0Z"/><path class="d" d="M214.166,212.879c.312,2.37.8,4.683,2.451,6.513a8.338,8.338,0,0,0,1.549,1.292,4.279,4.279,0,0,0,1,.52c.138.046-.609-.268-.388-.164l.138.061c.609.275,1.213.563,1.818.848.552.259,1.1.527,1.658.778a2.172,2.172,0,0,0,1.541.2,2,2,0,0,0,.477-3.656c-1.058-.479-2.1-.992-3.155-1.479-.169-.077-.337-.155-.507-.229s-.341-.157-.518-.218c.009,0,.464.244.289.095a1.442,1.442,0,0,0-.173-.1c-.111-.07-.218-.145-.326-.218-.279-.187.3.257-.035-.03a5.763,5.763,0,0,1-.544-.527c-.074-.082-.139-.176-.217-.254-.011-.011.254.363.148.188-.037-.061-.083-.117-.123-.176a6.13,6.13,0,0,1-.346-.586c-.047-.091-.088-.185-.134-.277-.138-.279.168.452.027.058a11,11,0,0,1-.4-1.37c-.047-.217-.089-.435-.128-.654-.029-.16-.056-.322-.083-.483s-.11-.755-.028-.13a2.2,2.2,0,0,0-.585-1.414,2,2,0,0,0-2.829,0,1.917,1.917,0,0,0-.586,1.414Z"/><path class="d" d="M218.353,149.745c1.331-2.691,4.318-3.712,7.163-3.9a10.678,10.678,0,0,1,8.207,3.208c2.52,2.349,3.386,5.9,4.123,9.154.76,3.349,1.761,6.271,4.172,8.807l.883-3.343c-3.06.93-6.049,1.324-9.086.114a2.015,2.015,0,0,0-2.461,1.4,2.05,2.05,0,0,0,1.4,2.461c3.641,1.45,7.547,1,11.213-.115a2.023,2.023,0,0,0,.883-3.343c-2.655-2.792-2.842-6.475-3.915-10a19.93,19.93,0,0,0-2.5-5.759,17.238,17.238,0,0,0-4.135-4.02,13.936,13.936,0,0,0-10.479-2.363c-3.634.534-7.228,2.27-8.92,5.69-1.138,2.3,2.311,4.328,3.454,2.019Z"/><path class="d" d="M231.573,183.952a2,2,0,0,1,1.365-.342,1.556,1.556,0,0,1,1.18.773,4.753,4.753,0,0,1,.316,2.031,12.552,12.552,0,0,1-.175,2.524,13.477,13.477,0,0,1-1.806,4.779,6.779,6.779,0,0,1-1.359,1.606,4.033,4.033,0,0,1-.371.252c-.5.318.1,0-.2.116-.329.125-.286.08-.66-.02-2.49-.664-3.552,3.194-1.063,3.858,2.924.78,5.221-1.079,6.818-3.357a16.682,16.682,0,0,0,2.7-7.531c.308-2.533.273-5.708-1.77-7.548a5.9,5.9,0,0,0-7.8.031,2.015,2.015,0,0,0,0,2.828,2.042,2.042,0,0,0,2.828,0Z"/><path class="d" d="M179.491,181.282a5.9,5.9,0,0,0-7.8-.032c-2.042,1.84-2.078,5.017-1.77,7.549a16.686,16.686,0,0,0,2.7,7.531c1.6,2.279,3.89,4.137,6.818,3.356,2.485-.663,1.431-4.522-1.063-3.857-.771.206.065.022-.333.074-.183.024.062.057-.226-.022s-.054-.006-.207-.094a3.586,3.586,0,0,1-.465-.306,6.818,6.818,0,0,1-1.359-1.606,13.458,13.458,0,0,1-1.806-4.779,12.372,12.372,0,0,1-.178-2.385,5.153,5.153,0,0,1,.318-2.17,1.572,1.572,0,0,1,1.181-.774,1.963,1.963,0,0,1,1.365.343,2.053,2.053,0,0,0,2.828,0,2.015,2.015,0,0,0,0-2.828Z"/><path class="d" d="M227.237,195.523a15.3,15.3,0,0,1-.528,2.293,12.946,12.946,0,0,0-.543,1.581c-.048.3.239-.463.065-.156-.069.121-.12.256-.182.381-.133.268-.276.532-.422.793a33.3,33.3,0,0,1-2.752,4.106,29.834,29.834,0,0,1-4.549,4.666,12.957,12.957,0,0,1-5.251,2.636,2,2,0,1,0,1.064,3.857c4.73-1.033,8.636-4.65,11.565-8.331,2.535-3.187,4.783-6.652,5.39-10.763a2.066,2.066,0,0,0-1.4-2.46,2.015,2.015,0,0,0-2.46,1.4Z"/><path class="d" d="M177.317,196.027a30.119,30.119,0,0,0,7.35,13.206c3.491,3.661,8,6.643,13.093,7.364a2.068,2.068,0,0,0,2.46-1.4,2.014,2.014,0,0,0-1.4-2.46c-8.85-1.255-15.51-9.514-17.649-17.776-.645-2.49-4.5-1.435-3.857,1.063Z"/><path class="d" d="M234.937,181.952c1.3-8,.526-16.448-3.883-23.427a31.134,31.134,0,0,0-18.321-13.276c-13.718-3.57-28.937,2.095-35.957,14.614-3.837,6.842-4.274,14.49-3.046,22.091a2.014,2.014,0,0,0,2.46,1.4,2.048,2.048,0,0,0,1.4-2.46c-.924-5.721-.8-11.654,1.63-17.012a26.91,26.91,0,0,1,9.724-11.277c11.654-7.664,28.3-5.094,37.077,5.72,5.115,6.3,6.333,14.733,5.062,22.567a2.061,2.061,0,0,0,1.4,2.46,2.016,2.016,0,0,0,2.46-1.4Z"/><path class="d" d="M251.257,243.534a53.344,53.344,0,0,0-9.584-14.962c-3.963-4.316-9.734-6.931-15.089-9.035a2.014,2.014,0,0,0-2.46,1.4,2.045,2.045,0,0,0,1.4,2.46c4.809,1.889,10.041,4.3,13.533,8.238a51.785,51.785,0,0,1,8.749,13.921,2.013,2.013,0,0,0,2.736.718,2.055,2.055,0,0,0,.718-2.737Z"/><path class="d" d="M163.528,245.543c1.811-5.225,4.043-10.843,8.266-14.635a30.566,30.566,0,0,1,7.09-4.335c2.779-1.36,5.64-2.541,8.529-3.644a2.057,2.057,0,0,0,1.4-2.46,2.014,2.014,0,0,0-2.46-1.4c-3.21,1.226-6.4,2.537-9.485,4.047a34.045,34.045,0,0,0-7.9,4.96c-4.729,4.248-7.265,10.548-9.294,16.4-.845,2.437,3.018,3.485,3.857,1.063Z"/><path class="d" d="M199.417,203.126a9.1,9.1,0,0,0,10.932,0,2,2,0,1,0-2.828-2.829c-.077.076-.35.291-.016.033s0-.007-.1.053-.214.124-.324.179c-.012.006-.225.1-.225.106,0-.03.544-.206.185-.083a7.725,7.725,0,0,1-1.077.294c-.06.012-.12.022-.179.031q-.231.037.219-.026a1.046,1.046,0,0,0-.331.034q-.394.031-.791.032c-.241,0-.483-.008-.724-.027-.13-.01-.268-.037-.4-.039.167,0,.415.063.1.006a6.655,6.655,0,0,1-1.092-.289c-.159-.058-.416-.219.142.067-.062-.032-.127-.057-.189-.088-.122-.06-.243-.125-.359-.2-.089-.055-.171-.12-.259-.176.589.371.3.245.144.09a2,2,0,0,0-2.828,2.829Z"/><path class="d" d="M204.543,192.83a1.631,1.631,0,0,1-.151.075l.477-.2a1.018,1.018,0,0,1-.25.069l.532-.072a1,1,0,0,1-.25,0l.532.072c-.048-.007-.1-.016-.144-.026-.216-.043-.438-.065-.655-.093a2.059,2.059,0,0,0-2,2l.072.532a2,2,0,0,0,.514.883l.405.312a1.987,1.987,0,0,0,1.009.273h.009l-.532-.071c.061.008.122.022.183.033.2.038.415.061.622.086a1.017,1.017,0,0,0,.109.008.87.87,0,0,0,.114,0c.178-.019.378-.048.556-.075l.03,0c.022,0,.043-.008.064-.014a1.057,1.057,0,0,0,.144-.048,5.446,5.446,0,0,0,.629-.276,1.929,1.929,0,0,0,.955-1.993,1.492,1.492,0,0,0-.237-.744l-.313-.405a2.009,2.009,0,0,0-.883-.514l-.531-.071a1.991,1.991,0,0,0-1.01.273Z"/><path class="d" d="M191.262,185c-.413,1.341-.144,4.426,2.4,4.689,3.358-.02,3.537-3.75,2.406-5.5C195.14,182.747,192.418,182.15,191.262,185Z"/><path class="d" d="M218.043,185c.413,1.341.144,4.426-2.4,4.689-3.358-.02-3.537-3.75-2.406-5.5C214.165,182.747,216.887,182.15,218.043,185Z"/><path class="d" d="M190.335,167.692a18.613,18.613,0,0,0-9.039,7.064,23.37,23.37,0,0,0-2.656,5.228,15.93,15.93,0,0,0-.8,2.642c-.252,1.38.594,3.107,2.225,2.962a2.054,2.054,0,0,0,2-2,2.015,2.015,0,0,0-2-2l-.11.01,1.009.273-.085-.057.718.718c.125.218-.025,1.543.211.674q.078-.288.163-.574.153-.515.328-1.023a16.865,16.865,0,0,1,.687-1.735,19.828,19.828,0,0,1,2.161-3.645,14.124,14.124,0,0,1,6.254-4.68,2.05,2.05,0,0,0,1.4-2.46,2.018,2.018,0,0,0-2.46-1.4Z"/><path class="d" d="M189.819,164.046a15.484,15.484,0,0,0,3.883,7.79,20.456,20.456,0,0,0,3.339,2.963,9.92,9.92,0,0,0,4.46,2.076,2,2,0,0,0,2-2,2.062,2.062,0,0,0-2-2c.418.056-.148-.089-.194-.107.266.1-.008-.019-.122-.079-.285-.152-.563-.316-.838-.484-.516-.316-1-.667-1.5-1.014-.189-.132.216.179-.074-.056-.134-.108-.268-.217-.4-.328q-.33-.277-.646-.571a17.543,17.543,0,0,1-1.315-1.357q-.139-.162-.276-.327c-.106-.13-.229-.289-.058-.064q-.283-.372-.543-.762a13.962,13.962,0,0,1-.893-1.534c-.076-.151-.146-.3-.217-.456-.162-.345.051.159-.029-.065-.1-.291-.218-.577-.31-.873a12.262,12.262,0,0,1-.415-1.815,2.006,2.006,0,0,0-2.46-1.4,2.061,2.061,0,0,0-1.4,2.46Z"/><path class="d" d="M203.633,164.97a28.554,28.554,0,0,0,5.053,7.261A15.045,15.045,0,0,0,215.9,176.1c2.337.62,4.773,1.111,6.64,2.759a10.106,10.106,0,0,1,3.275,5.754c.493,2.524,4.349,1.455,3.857-1.064a14.029,14.029,0,0,0-10.169-10.63c-2.5-.735-5.288-1.07-7.309-2.868a23.267,23.267,0,0,1-5.109-7.1c-1.147-2.305-4.6-.281-3.454,2.019Z"/><path class="d" d="M184.6,223.712c5.408,5.652,13.859,6.98,21.343,6.893,6.816-.079,15.07-1.946,19.634-7.475,1.627-1.97-1.188-4.816-2.829-2.828-3.92,4.749-10.958,6.235-16.805,6.3-6.425.074-13.846-.842-18.515-5.721-1.783-1.864-4.609.968-2.828,2.828Z"/><path class="d" d="M230.989,74.942a3.1,3.1,0,0,1,2.681-.624,2.717,2.717,0,0,1,1.228.533c-.2-.156.6.756.311.328,1.086,1.62,1.1,3.872.934,5.784a14.534,14.534,0,0,1-1.8,5.525c-1.106,2.022-2.794,4.094-5.324,3.756-1.072-.144-2,1.021-2,2a2.052,2.052,0,0,0,2,2c5.626.752,9.086-5.347,10.508-9.884,1.27-4.054,1.269-10.4-2.7-13.024a7.273,7.273,0,0,0-8.667.778c-1.931,1.71.907,4.53,2.829,2.828Z"/><path class="d" d="M227.29,89.356a31.42,31.42,0,0,1-1.44,4.73c-.2.516-.429,1.016-.639,1.527-.112.273.195-.39-.058.133-.069.142-.134.287-.2.43a40.25,40.25,0,0,1-3.491,5.761c-3.063,4.305-7.249,8.987-12.607,10.224-2.507.579-1.446,4.437,1.063,3.857,6.227-1.437,11.035-6.625,14.657-11.59a35.308,35.308,0,0,0,6.575-14.009c.534-2.511-3.321-3.584-3.857-1.063Z"/><path class="d" d="M165.4,90.067c2.634,11.763,11.417,24.6,24.11,26.563a2.064,2.064,0,0,0,2.46-1.4,2.015,2.015,0,0,0-1.4-2.46c-11.4-1.765-18.957-13.234-21.316-23.769-.562-2.511-4.42-1.448-3.857,1.063Z"/><path class="d" d="M191.169,100a13.146,13.146,0,0,0,6.323,1.494,10.382,10.382,0,0,0,6.472-1.923,2,2,0,0,0,0-2.828,2.062,2.062,0,0,0-2.828,0c.684-.529-.094.029-.314.143-.181.094-.634.21-.042.037-.176.052-.347.132-.523.188-.222.071-.448.131-.676.182-.173.04-.62.208-.786.146l.217-.031c-.082.01-.165.019-.247.026-.144.014-.287.025-.431.034-.346.021-.692.028-1.039.025q-.465,0-.929-.037c-.143-.011-.284-.026-.426-.037-.545-.045.413.077-.1-.01a11.148,11.148,0,0,1-1.363-.309c-.191-.058-.377-.127-.566-.192-.469-.164.39.19-.034-.013-.234-.112-.464-.227-.693-.349A2,2,0,1,0,191.169,100Z"/><path class="d" d="M196.346,85.362a28.709,28.709,0,0,1,.664,3.1l-.072-.532a1.849,1.849,0,0,1,.01.427l.072-.532a1.124,1.124,0,0,1-.048.192l.2-.478a.681.681,0,0,1-.068.124l.313-.405a.675.675,0,0,1-.1.1l.4-.313a2.042,2.042,0,0,1-.245.129l.478-.2a1.752,1.752,0,0,1-.414.119l.532-.071a1.678,1.678,0,0,1-.388,0l.532.071c-.146-.021-.289-.057-.435-.077a2.246,2.246,0,0,0-1.542.2,2,2,0,0,0-.717,2.737,1.922,1.922,0,0,0,1.2.919c.37.051.727.143,1.1.161a3.585,3.585,0,0,0,1.674-.4,2.5,2.5,0,0,0,1.363-1.639,3.935,3.935,0,0,0-.012-1.721c-.164-1-.391-1.986-.643-2.964a2.061,2.061,0,0,0-.919-1.2,2,2,0,0,0-2.938,2.258Z"/><path class="d" d="M180.424,76.423c-.524,1.677-.2,5.539,2.977,5.88,4.2-.008,4.444-4.676,3.038-6.876C185.288,73.625,181.885,72.865,180.424,76.423Z"/><path class="d" d="M214.08,76.555c.51,1.68.158,5.54-3.023,5.856-4.2-.042-4.408-4.711-2.985-6.9C209.237,73.718,212.646,72.984,214.08,76.555Z"/><path class="d" d="M221.26,27.3A37.826,37.826,0,0,0,199.3,20.513a57.749,57.749,0,0,0-9.462.618,37.973,37.973,0,0,0-8.743,2.819c-10.816,4.912-20.079,15.388-21.885,27.368a49.163,49.163,0,0,0-.277,10.784,29.505,29.505,0,0,0,2.153,10.2,2.016,2.016,0,0,0,2.737.718,2.046,2.046,0,0,0,.717-2.736,23.392,23.392,0,0,1-1.581-7.84,53.963,53.963,0,0,1-.027-8.826,30.063,30.063,0,0,1,5.982-14.834c6.411-8.745,17.135-14.448,28.029-14.293a45.136,45.136,0,0,1,11.243,1.094,36.112,36.112,0,0,1,11.06,5.168c2.131,1.455,4.134-2.009,2.019-3.454Z"/><path class="d" d="M236.8,73.52c2.688-6.447,1.81-14.377.685-21.081a36.417,36.417,0,0,0-11.143-20.916c-1.89-1.743-4.726,1.079-2.829,2.829A32.935,32.935,0,0,1,233.626,53.5c1.016,6.047,1.735,13.152-.684,18.955a2.012,2.012,0,0,0,1.4,2.46,2.052,2.052,0,0,0,2.46-1.4Z"/><path class="d" d="M216.256,51.18a42.623,42.623,0,0,0,3.911,12.33c1.544,3.352,3.224,6.624,6.8,8.122a2.012,2.012,0,0,0,2.46-1.4,2.051,2.051,0,0,0-1.4-2.46,5.905,5.905,0,0,1-2.431-2.413,35.069,35.069,0,0,1-2.123-4.182,35.619,35.619,0,0,1-3.222-10,2.066,2.066,0,0,0-2-2,2.011,2.011,0,0,0-2,2Z"/><path class="d" d="M149.054,139.85a45.526,45.526,0,0,1,11.076-8.768c3.784-2.189,8.21-3.391,12.353-4.687,2.449-.766,1.4-4.629-1.063-3.857-4.466,1.4-9.231,2.732-13.309,5.09a49.076,49.076,0,0,0-11.885,9.393c-1.714,1.912,1.106,4.75,2.828,2.829Z"/><path class="d" d="M168.606,71.871a7.307,7.307,0,0,0-7.943-1.211A6.959,6.959,0,0,0,157,75.339a17.727,17.727,0,0,0,2.532,14c1.792,2.688,4.621,5.1,8.068,4.666a2.063,2.063,0,0,0,2-2,2.012,2.012,0,0,0-2-2c-2.531.319-4.2-1.783-5.287-3.81a14.5,14.5,0,0,1-1.749-5.541c-.156-1.905-.125-4.176.986-5.774-.262.376.063-.061.118-.117.007-.007.428-.373.2-.2a2.614,2.614,0,0,1,1.092-.49,3.135,3.135,0,0,1,2.814.63c1.91,1.718,4.747-1.1,2.828-2.828Z"/><path class="d" d="M230.48,129.919a98.059,98.059,0,0,1,11.157,4.945,37.314,37.314,0,0,1,9.257,6.191c5.514,5.467,7.77,12.927,9.8,20.213,2.273,8.164,4.691,16.306,6.358,24.621,1.436,7.161,2.7,14.671,2.034,21.991a22.989,22.989,0,0,1-3.7,10.846,44.088,44.088,0,0,1-8.849,9.063c-1.984,1.644.86,4.46,2.829,2.828,6.073-5.033,11.571-10.836,13.167-18.827,1.515-7.584.382-15.414-.883-22.947-1.486-8.853-3.98-17.486-6.4-26.118-2.233-7.983-4.369-16.139-9.806-22.624a34.786,34.786,0,0,0-10.361-7.926,104.446,104.446,0,0,0-13.54-6.114c-2.415-.9-3.457,2.963-1.064,3.858Z"/><path class="d" d="M243.267,203.3a17.506,17.506,0,0,1,5.656-.405,15.9,15.9,0,0,1,2.595.434,20.023,20.023,0,0,1,2.9.961,2.006,2.006,0,0,0,2.461-1.4,2.063,2.063,0,0,0-1.4-2.46,21.78,21.78,0,0,0-13.281-.99,2.018,2.018,0,0,0-1.4,2.46,2.043,2.043,0,0,0,2.46,1.4Z"/><path class="d" d="M212,112.717a22.111,22.111,0,0,0,2.157,7.378,12.279,12.279,0,0,0,4.166,4.119c3.732,2.465,8.046,4.007,12.158,5.705a2.014,2.014,0,0,0,2.461-1.4,2.053,2.053,0,0,0-1.4-2.461,69.9,69.9,0,0,1-10.808-5.046,11.878,11.878,0,0,1-1.813-1.332c-.267-.242-.515-.5-.759-.764-.317-.345.1.172-.14-.167-.123-.177-.236-.36-.343-.546a18.975,18.975,0,0,1-1.825-6.553,2.016,2.016,0,0,0-2.46-1.4,2.05,2.05,0,0,0-1.4,2.461Z"/><path class="d" d="M172.483,126.4a65.713,65.713,0,0,0,9.344-3.5c1.413-.714,3.037-1.558,3.508-3.177a24.573,24.573,0,0,0,.463-2.521l.5-2.8a2.047,2.047,0,0,0-1.4-2.461,2.025,2.025,0,0,0-2.46,1.4c-.292,1.634-.563,3.274-.875,4.9a2.878,2.878,0,0,0-.088.42c-.04-.035.218-.333.224-.318s-.649.4-.721.448a15,15,0,0,1-1.479.807c-.268.13-.539.254-.812.374-.115.051-.388.165-.129.058q-.225.093-.451.183c-.675.271-1.357.523-2.042.767-1.54.549-3.094,1.053-4.648,1.56a2,2,0,1,0,1.063,3.857Z"/><path class="d" d="M171.628,132.118c7.676,3.613,15.5,6.062,24.015,6.455,7.336.339,15.318.143,22.376-2.121a39.272,39.272,0,0,0,6.889-3.087c2.256-1.241.241-4.7-2.018-3.454a34.184,34.184,0,0,1-12.771,4.146c-7.793.968-16.1,1.079-23.78-.742a65.333,65.333,0,0,1-12.692-4.651c-2.316-1.09-4.349,2.357-2.019,3.454Z"/><path class="d" d="M158.011,204.379a186.022,186.022,0,0,0,5.617,18,2.055,2.055,0,0,0,2.461,1.4,2.015,2.015,0,0,0,1.4-2.46,186.126,186.126,0,0,1-5.617-18c-.641-2.491-4.5-1.435-3.857,1.064Z"/><path class="d" d="M195.891,64.4a3.177,3.177,0,0,0,1.328,3.577,6.152,6.152,0,0,0,3.318.6,16.171,16.171,0,0,0,7.964-2.407c3.927-2.427,6.548-6.978,8-11.255A29.976,29.976,0,0,0,217.79,46.5c.1-2.574-3.9-2.57-4,0-.182,4.5-1.068,8.635-3.579,12.314a12.685,12.685,0,0,1-5.668,4.9,11.792,11.792,0,0,1-3.514.844,10.192,10.192,0,0,1-1.493,0c-.112-.008-.407.04-.33-.045.132-.144.6.7.542.949.606-2.5-3.25-3.568-3.857-1.064Z"/><path class="d" d="M179.854,64.829c-.305,4.378,4.786,4.3,7.859,3.925a17.141,17.141,0,0,0,9.594-4.333,24.349,24.349,0,0,0,5.757-8.444,35.739,35.739,0,0,0,2.089-9.634,2.012,2.012,0,0,0-2-2,2.047,2.047,0,0,0-2,2,34.3,34.3,0,0,1-1.524,7.477,20.36,20.36,0,0,1-3.886,6.449,13.1,13.1,0,0,1-6.54,4.149,12.944,12.944,0,0,1-3.143.458c-.562.016-1.127.014-1.689-.005a4.647,4.647,0,0,0-.774-.049c.227-.323.192.94.257.007a2.018,2.018,0,0,0-2-2,2.038,2.038,0,0,0-2,2Z"/><path class="d" d="M171.776,71.484c4.05-2.7,8.994-3.692,12.871-6.634,3.957-3,5.908-7.564,7.061-12.268.613-2.5-3.243-3.566-3.857-1.063-.984,4.012-2.506,7.989-6.009,10.453a32.8,32.8,0,0,1-6.126,2.967,37.187,37.187,0,0,0-5.959,3.092,2.047,2.047,0,0,0-.717,2.736,2.019,2.019,0,0,0,2.736.717Z"/><path class="a" d="M247.164,236.951l-1.261-1.262a20.171,20.171,0,0,1-5.415,5.4,3.218,3.218,0,0,1-2.021.7,3.269,3.269,0,0,1-1.791-.635,4.723,4.723,0,0,1-1.48-3.4c-1.547,1.595-2.461,2.436-4.669,2.091a3.948,3.948,0,0,1-1.912-1.191,4.35,4.35,0,0,1-.694-3.188s.193-.6.477-1.471a3.371,3.371,0,0,1-3.758-.358,3.244,3.244,0,0,1-.708-3.025,9.587,9.587,0,0,1,1.4-2.909l3.12-4.949.647-1.026-2.35,1.523c-2.526,1.637-5.006-1.315-4.038-3.851a20.252,20.252,0,0,1,2.305-4.655c1.53-2.041,5.147-4.777,7.95-2.86l5.216-.364c2.779-.388,4.734,1.238,6.918,2.233a14.845,14.845,0,0,1,5.366,4.8c1.773,2.405,2.848,4.694,2.756,6.9a15.41,15.41,0,0,1-6.061,11.49"/><path class="d" d="M233.978,210.17c-3.416-2.232-7.7,0-10.041,2.757a18.412,18.412,0,0,0-2.913,5.339,5.521,5.521,0,0,0,.408,5.332,4.637,4.637,0,0,0,6.33,1.392,2,2,0,0,0-2.019-3.454c-.095.061-.192.118-.291.169q.354-.132.044-.021a2.482,2.482,0,0,1-.285.074c.3-.031.335-.039.113-.024a2.446,2.446,0,0,1-.271-.009q.464.071.138,0c-.519-.208.145.155-.13-.053a2.492,2.492,0,0,1-.223-.144c.226.179.257.2.095.055-.066-.062-.128-.128-.188-.2q.25.343.061.078c-.074-.127-.263-.337-.272-.488.108.262.124.289.05.081l-.04-.137c-.025-.093-.046-.186-.063-.281q.051.441.023.1c0-.1-.006-.2,0-.294.018-.227.01-.2-.023.087-.083-.292.3-.936.4-1.2.086-.218.173-.436.263-.652-.162.391.134-.3.164-.366.194-.426.4-.847.623-1.257s.463-.771.713-1.148q.228-.309-.051.059c.056-.07.114-.14.173-.209.123-.146.251-.287.383-.425.285-.3.592-.564.9-.839q.261-.21-.03.014c.086-.065.173-.129.26-.191.154-.109.312-.214.472-.314s.323-.2.49-.285c.086-.046.721-.326.247-.139a3.161,3.161,0,0,1,1.2-.342c-.542-.05.1.011.226.012.1,0,.2.007.3.016-.281-.044-.309-.045-.082,0,.1.031.716.254.258.042a4.566,4.566,0,0,1,.57.323,2.016,2.016,0,0,0,2.737-.717,2.046,2.046,0,0,0-.718-2.737Z"/><path class="d" d="M229.4,217.515l-4.507,7.148c-1.363,2.162-3.288,4.55-3.041,7.265a4.769,4.769,0,0,0,5.265,4.451c2.507-.246,4.4-2.03,6-3.839a65.141,65.141,0,0,0,4.966-6.817,2,2,0,0,0-3.454-2.019,57.75,57.75,0,0,1-4.34,6.008,14.139,14.139,0,0,1-2.41,2.285c-.085.057-.677.337-.47.264a4.183,4.183,0,0,1-.411.117q-.34.068-.152.031a1.127,1.127,0,0,1-.717-.117c-.229-.142-.236-.164-.279-.469q-.078-.366-.021-.113a4,4,0,0,1,0-.438q-.054.252.021-.116.06-.263.146-.518a18.889,18.889,0,0,1,2.021-3.446l4.829-7.658a2,2,0,1,0-3.454-2.019Z"/><path class="d" d="M225.993,234.947a5.594,5.594,0,0,0,7.9,6.427,11.928,11.928,0,0,0,3.364-2.871q1.484-1.578,2.913-3.208c1.486-1.687,2.93-3.41,4.284-5.206a2.012,2.012,0,0,0-.718-2.736,2.049,2.049,0,0,0-2.736.717c-.409.542-1.1,1.4-1.711,2.131q-.992,1.188-2.018,2.345c-.97,1.1-1.953,2.19-2.962,3.255-.509.537-1.018,1.083-1.572,1.574-.04.035-.5.37-.15.134-.184.125-.371.235-.566.342.373-.206-.013,0-.129.03s-.218.053-.329.072q.364-.05,0-.021c-.2-.015-.4.005-.6-.02.329.041-.475-.2-.119-.036-.205-.095-.381-.242-.575-.354q.165.105-.1-.119.161.258-.016-.019l-.086-.155c.071.2.065.184-.018-.043s-.128-.44-.177-.666c-.026-.147-.027-.129,0,.055-.013-.12-.021-.241-.024-.362a3.006,3.006,0,0,1,.007-.329q-.072.429,0,.126a2,2,0,0,0-3.857-1.063Z"/><path class="d" d="M233.566,239.883a5.426,5.426,0,0,0,4,3.8c1.988.367,3.525-.5,5.048-1.665a25.093,25.093,0,0,0,6.768-8.171,2,2,0,1,0-3.454-2.019,28.386,28.386,0,0,1-2.217,3.5c-.2.268.013-.011-.111.143-.1.128-.207.257-.312.383q-.348.417-.715.817a20.369,20.369,0,0,1-1.475,1.449q-.368.326-.753.631c.241-.19-.1.072-.142.1q-.2.145-.4.285c-.254.175-.514.337-.773.5-.175.111-.273.136-.023.044-.136.05-.27.082-.409.121s-.115.025.07-.014h-.2c-.452-.056.435.141-.082-.02-.139-.044-.281-.086-.421-.125-.252-.071.293.092-.053-.044q.3.252.11.069c-.069-.069-.136-.139-.2-.212-.1-.111-.156-.192-.034-.022-.1-.144-.187-.3-.281-.446-.219-.35.075.261-.082-.176a2,2,0,1,0-3.857,1.063Z"/><path class="d" d="M238.185,213.533c2.366-.25,4.629,1.194,6.622,2.325a15.348,15.348,0,0,1,5.559,6.279c2.278,4.4-.509,10.32-4.212,13.087a2.063,2.063,0,0,0-.717,2.736,2.014,2.014,0,0,0,2.736.718c5.225-3.905,8.854-11.449,6.016-17.789a19.62,19.62,0,0,0-6.846-8.167,34.15,34.15,0,0,0-4.135-2.168,9.377,9.377,0,0,0-5.023-1.021,2.058,2.058,0,0,0-2,2,2.014,2.014,0,0,0,2,2Z"/><path class="a" d="M84.492,131.885c-2.323-2.179-5.225-3.794-8.311-3.406-4.173.525-7.2,4.873-7.055,9.076.172,5.157,4.267,9.708,8.884,11.654a46.988,46.988,0,0,0,11.645-5.238l1.615-2.745a8.8,8.8,0,0,0,1.026-6.165c-.321-1.565-1.367-3.234-2.962-3.315-1.279-.064-2.347.907-3.252,1.813A20.67,20.67,0,0,0,84.492,131.885Z"/><path class="h" d="M148.714,158.157a41.286,41.286,0,0,0-7.462-16.018c-5.112-6.375-12.517-10.219-20.6-9a32.155,32.155,0,0,0-9.55,2.648c-5.839,3.042-11.072,6.475-14.79,13.022a41.811,41.811,0,0,0-3.918-6.692,46.821,46.821,0,0,1-15.465,7.4c-.457,6.311,3.385,20.655,4.852,25.629.969,3.285,2.375,6.73,5.36,8.639a12.244,12.244,0,0,0,5.27,1.68l-.445,1.427c-7.372.762-12.713,9.5-10.026,16.412l4.164,10.157,33.938,4.909c11.446-1.045,21.364-9.482,26.287-19.867s5.413-22.408,3.682-33.77C149.678,162.531,149.255,160.328,148.714,158.157Z"/><path class="d" d="M106.208,179.117a17.478,17.478,0,0,1-11.364,4.454,12.307,12.307,0,0,1-6.327-1.3,9.131,9.131,0,0,1-3.512-4.131,45.46,45.46,0,0,1-2.623-8.324c-.888-3.372-1.7-6.767-2.37-10.19a40.074,40.074,0,0,1-1.081-10.116l-1.468,1.928a49.342,49.342,0,0,0,15.943-7.6l-2.737-.718a41.509,41.509,0,0,1,5.209,9.833c.872,2.4,4.739,1.364,3.857-1.064A45.279,45.279,0,0,0,94.123,141.1a2.025,2.025,0,0,0-2.736-.717,46.222,46.222,0,0,1-14.988,7.2,2.059,2.059,0,0,0-1.468,1.929A42.423,42.423,0,0,0,76,159.864c.7,3.751,1.591,7.468,2.565,11.158.89,3.367,1.707,6.905,3.419,9.965,2.521,4.5,7.027,6.467,12.053,6.582a21.7,21.7,0,0,0,15-5.624c1.908-1.736-.927-4.558-2.829-2.828Z"/><path class="d" d="M91.968,184.888a14.2,14.2,0,0,0-10.457,6.8,14.053,14.053,0,0,0-1.5,12.142,2.056,2.056,0,0,0,2.46,1.4,2.015,2.015,0,0,0,1.4-2.46,9,9,0,0,1-.573-4.522,11.292,11.292,0,0,1,1.557-4.357,11.6,11.6,0,0,1,2.94-3.27c.34-.239.689-.464,1.051-.668q.272-.151.55-.29c.018-.009.571-.26.278-.137a9.745,9.745,0,0,1,1.28-.425q.3-.079.61-.141c.073-.014.721-.106.4-.07a2.06,2.06,0,0,0,2-2,2.012,2.012,0,0,0-2-2Z"/><path class="d" d="M107.955,134.91c-4.006.679-8.034-3.23-9.6-6.575-2.028-4.34-1.029-9.491-.765-14.077.251-4.361.255-8.532,1.719-12.711a17.014,17.014,0,0,1,7.073-9.182c4.093-2.431,8.967-3.071,13.653-2.984a35.538,35.538,0,0,1,10.877,1.843c6.692,2.293,12.124,7.2,13.858,14.207a32.956,32.956,0,0,1-.282,15.007,21.7,21.7,0,0,1-8.289,12.877,2.064,2.064,0,0,0-.718,2.737,2.015,2.015,0,0,0,2.737.717,25.575,25.575,0,0,0,9.472-12.864,39.356,39.356,0,0,0,1.511-16.283,23.864,23.864,0,0,0-14.541-19.2c-8.505-3.693-19.4-4.407-27.991-.676A19.978,19.978,0,0,0,96.517,97.869c-2.089,4.552-2.623,9.252-2.816,14.2-.243,6.218-1.609,12.823,1.37,18.627a18.05,18.05,0,0,0,5.8,6.268,10.712,10.712,0,0,0,8.152,1.807,2.016,2.016,0,0,0,1.4-2.46,2.046,2.046,0,0,0-2.46-1.4Z"/><path class="d" d="M115.229,114.162a11.641,11.641,0,0,1-1.885-.085l.532.072q-.38-.051-.753-.129a1.506,1.506,0,0,0-.8-.036,1.486,1.486,0,0,0-.743.237,2.235,2.235,0,0,0-.919,1.2,2.022,2.022,0,0,0,.2,1.541,2,2,0,0,0,1.2.919,13.331,13.331,0,0,0,3.169.285,2.087,2.087,0,0,0,1.414-.586,2.222,2.222,0,0,0,.586-1.414,2,2,0,0,0-2-2Z"/><path class="d" d="M101.293,113.384a9.1,9.1,0,0,1-1.986-.044l.532.072a3.9,3.9,0,0,1-.386-.07,2.1,2.1,0,0,0-1.541.2,2.238,2.238,0,0,0-.919,1.2,2,2,0,0,0,1.4,2.46,8.323,8.323,0,0,0,.979.149c.2.025.411.041.617.052a9.05,9.05,0,0,0,1.307-.016,2.216,2.216,0,0,0,1.414-.586,2.222,2.222,0,0,0,.586-1.414,2.018,2.018,0,0,0-.586-1.414l-.4-.313a1.991,1.991,0,0,0-1.01-.273Z"/><path class="d" d="M105.621,126.2a17.468,17.468,0,0,0-2.293-.269,2.056,2.056,0,0,0-2,2l.071.532a2,2,0,0,0,.514.882l.405.313a1.991,1.991,0,0,0,1.01.273c.438.031.877.065,1.313.123l-.531-.071c.15.02.3.044.447.074a2.057,2.057,0,0,0,2.461-1.4l.071-.531a1.991,1.991,0,0,0-.273-1.01l-.313-.4a1.992,1.992,0,0,0-.882-.515Z"/><path class="d" d="M131.949,120.277c.058-.037.524-.271.125-.112a4.121,4.121,0,0,1,.509-.15c.351-.087-.109-.036.1,0,.058.009.607.039.371,0-.259-.042.217.066.266.079.455.118-.215-.169.174.075.1.063.444.371.149.08.044.044.321.381.168.155-.164-.241.1.229-.022-.061.039.089.132.579.086.224a8.893,8.893,0,0,1,.039,1.177c0,.329-.011.658-.034.987-.014.2-.028.392-.056.585.058-.4-.05.218-.054.239a7.891,7.891,0,0,1-.286,1.035c-.036.1-.175.411-.058.164-.086.183-.178.362-.279.537s-.206.336-.316.5c-.027.04-.309.423-.153.222.14-.18-.192.218-.232.262-.1.107-.2.211-.305.31-.024.024-.46.391-.145.149a4.908,4.908,0,0,1-.474.319c-.1.062-.212.118-.321.172-.168.082-.305.117-.055.028-.341.122-.682.237-1.034.326-.171.044-.346.074-.518.115-.428.1.336-.025-.1.013a2,2,0,0,0,0,4,8.878,8.878,0,0,0,5.6-2.415,9.792,9.792,0,0,0,2.7-5.78c.263-2.063.318-4.56-1.327-6.09a5.5,5.5,0,0,0-6.538-.592,2,2,0,0,0,2.019,3.454Z"/><path class="d" d="M93,142.236c1.638-2.932,2.19-7.034.3-10a4.991,4.991,0,0,0-3.967-2.486c-1.877-.07-3.406,1.155-4.666,2.4H87.5c-2.469-2.852-5.687-5.272-9.54-5.674a9.7,9.7,0,0,0-8.92,4.544C64.585,137.6,68.6,145.6,74.513,149.6c2.138,1.445,4.142-2.019,2.018-3.454-4.09-2.763-7.145-8.183-4.214-12.849a5.732,5.732,0,0,1,5.456-2.853c2.811.329,5.129,2.487,6.9,4.528a2.022,2.022,0,0,0,2.828,0c.383-.378,1.2-1.381,1.838-1.227.434.1.741.873.866,1.219a6.541,6.541,0,0,1-.657,5.252c-1.257,2.25,2.2,4.269,3.454,2.019Z"/><path class="d" d="M98.684,148.737a28.428,28.428,0,0,1,9.172-8.826,34,34,0,0,1,5.614-3.012,35,35,0,0,1,6.935-1.714c8.894-1.44,16.708,3.72,21.31,11.052,5.1,8.122,6.864,18.316,7.17,27.768.309,9.534-1.345,19.394-6.529,27.553-4.9,7.715-13.025,13.894-22.312,14.808a2.056,2.056,0,0,0-2,2,2.014,2.014,0,0,0,2,2c9.363-.921,17.682-6.127,23.415-13.482,6.554-8.408,9.283-19.011,9.454-29.548a79.009,79.009,0,0,0-1.512-16.271,51.964,51.964,0,0,0-5.071-14.851c-4.607-8.525-13.047-15.528-23.159-15.3a35.291,35.291,0,0,0-27.941,15.8c-1.387,2.178,2.074,4.187,3.454,2.019Z"/><path class="d" d="M106.449,98.592a10.468,10.468,0,0,1-1.778,1.888l.4-.313a6.4,6.4,0,0,1-1.1.673,1.928,1.928,0,0,0-.955,1.993,1.477,1.477,0,0,0,.238.743,2.022,2.022,0,0,0,1.195.92l.532.071a1.987,1.987,0,0,0,1.009-.273,8.089,8.089,0,0,0,1.962-1.369,12.717,12.717,0,0,0,1.325-1.5,2.216,2.216,0,0,0,.586-1.414,2.036,2.036,0,0,0-.586-1.414,2.01,2.01,0,0,0-1.414-.586l-.532.072a2,2,0,0,0-.882.514Z"/><path class="d" d="M113.2,101.683c-.169.264-.352.519-.543.766l.313-.4a13.852,13.852,0,0,1-2.4,2.429l.405-.313c-.139.106-.28.209-.426.3a2.11,2.11,0,0,0-.919,1.2,2.043,2.043,0,0,0,.2,1.541,2,2,0,0,0,2.737.717,12.706,12.706,0,0,0,2.112-1.768,15.316,15.316,0,0,0,1.978-2.448,2,2,0,0,0-.718-2.736,2.022,2.022,0,0,0-1.541-.2,2.168,2.168,0,0,0-1.195.919Z"/><path class="a" d="M154.068,190.923q.823-.835,1.6-1.775c4.327-5.225,4.094-11.009,2.7-16.772-1.186-3.246-4.584-6.942-6.764-7.461a12.841,12.841,0,0,0-7.279.243,32.01,32.01,0,0,1-10.517,1.092,24.832,24.832,0,0,0-6.74.546c-2.305.485-3.3,1.853-3.033,4,.3,2.426,3.033,4.186,6.054,4.469l4.155.391a37.8,37.8,0,0,1-5.512,2.312c-2.586.844-5.119,1.574-7.711,2.653a3.6,3.6,0,0,0-2.215,3.4,3.843,3.843,0,0,0,4.725,3.791l3.074-.513-.495,2.04a3.739,3.739,0,0,0,1.108,3.763c1.783,4.99,7.508,5.669,12.249,4.98A24.67,24.67,0,0,0,154.068,190.923Z"/><path class="d" d="M130.09,173.268c-1.46-.167-5.081-1.552-4-3.737.375-.759,1.588-.833,2.322-.965a21.888,21.888,0,0,1,5-.344,37.956,37.956,0,0,0,10.972-1.019c2.415-.58,5.406-1.314,7.588.071,4.7,2.982,6.1,9.537,5.022,14.689-1.185,5.674-6.224,10.192-11.393,12.4a23.818,23.818,0,0,1-8.888,1.943c-2.587.035-5.564-.459-7.086-2.79-1.4-2.148-4.866-.145-3.454,2.019,4.025,6.166,12.851,5.334,18.937,3.271,6.838-2.319,13.669-7.795,15.563-15.023a23.917,23.917,0,0,0-.239-11.352c-.753-3.312-3.443-6.555-6.2-8.45-2.956-2.034-6.943-1.616-10.23-.808a36.327,36.327,0,0,1-6.595,1.112c-2.182.126-4.349-.188-6.528-.033-3.764.268-8.745.991-8.887,5.738-.133,4.487,4.19,6.828,8.092,7.275a2.011,2.011,0,0,0,2-2,2.048,2.048,0,0,0-2-2Z"/><path class="d" d="M136.08,172.344a39.505,39.505,0,0,1-8.2,3.8c-1.5.486-3,.944-4.492,1.457a16.318,16.318,0,0,0-4.137,1.735,5.789,5.789,0,0,0-1.744,7.432c1.254,2.545,3.917,3.35,6.558,2.973a2.013,2.013,0,0,0,1.4-2.46,2.052,2.052,0,0,0-2.461-1.4,1.763,1.763,0,0,1-1.575-.41c.222.177-.209-.249-.207-.247.171.211-.159-.283-.162-.287a2.3,2.3,0,0,1-.234-.761c.036.207-.02-.408-.019-.414s.08-.377.116-.461a1.737,1.737,0,0,1,.461-.584,9.841,9.841,0,0,1,2.91-1.206c2.319-.805,4.7-1.442,6.985-2.342A45.562,45.562,0,0,0,138.1,175.8c2.2-1.326.194-4.786-2.019-3.454Z"/><path class="d" d="M123.532,189.815a32.828,32.828,0,0,0,7.977-1.78,73.311,73.311,0,0,0,7.456-2.94,2.015,2.015,0,0,0,.718-2.736,2.048,2.048,0,0,0-2.737-.718c-.466.214-.936.42-1.407.624a.825.825,0,0,1-.131.055l-.36.148c-.279.115-.56.228-.841.339q-1.861.738-3.762,1.371c-1.243.412-2.5.788-3.773,1.1-.591.143-1.184.271-1.782.376-.132.023-.888.131-.489.083q-.433.053-.869.082a2.049,2.049,0,0,0-2,2,2.017,2.017,0,0,0,2,2Z"/><path class="a" d="M94.294,207.855a11.251,11.251,0,0,1,4.538-1.868,94.725,94.725,0,0,0,11.247-3.719c1.856-.806,3.416-2.282,5.391-2.725s4.389.2,5.216,2.045a4.323,4.323,0,0,1-.291,3.689,44.989,44.989,0,0,1-4.553,5.653l-.268.267.643.8c1.757,2.277,4.778,3.264,7.664,3.361a17.424,17.424,0,0,0,7.329-.914c1.69-.588,3.844-1.01,5.144-.588A3.7,3.7,0,0,1,139,216.843a7.125,7.125,0,0,1-1.175,2.645c-.8,1.393-3.165,2.665-6.2,3.741-.6,1.564-.951,2.481-.951,2.481-2.229,5.822-8.166,10.313-15.271,11.532-6.589,1.036-16.24,1.245-19.046.4-.786-.235-2.756-1.218-3.557-1.4-1.541-.341-5.158-.405-8.775-.655l-1.759-.119c.763-8.184,1.532-18.807,1.071-24.816.769.091,2.06.24,2.06.24a33.355,33.355,0,0,0,5.238.561l.848-.081a15.6,15.6,0,0,1,2.712-3.438Z"/><path class="d" d="M124.182,188.811c-.508,2.373.211,5.118,2.5,6.316a8.581,8.581,0,0,0,6.113.431,58.929,58.929,0,0,0,9.654-3.986,2.019,2.019,0,0,0,.717-2.737,2.043,2.043,0,0,0-2.736-.717,67.405,67.405,0,0,1-7.668,3.259,6.583,6.583,0,0,1-3.332.5c.12.019-.339-.078-.4-.094-.014,0-.558-.219-.333-.106-.065-.033-.489-.352-.275-.164l-.144-.149c.077.108.077.1,0-.01a1.608,1.608,0,0,1-.288-.81c.046.3,0-.337,0-.336-.007-.372-.041.058.042-.33a2.046,2.046,0,0,0-1.4-2.46,2.02,2.02,0,0,0-2.46,1.4Z"/><path class="d" d="M84.022,237.6c2.245.15,4.5.217,6.74.4a12.182,12.182,0,0,1,3.913,1.13c2.548,1.074,5.452,1.046,8.179,1.042,7.4-.008,15.639-.3,22-4.514a20.146,20.146,0,0,0,7.749-9.41,2.015,2.015,0,0,0-1.4-2.461,2.048,2.048,0,0,0-2.46,1.4c-2.481,6.267-9.086,9.583-15.438,10.354a87.551,87.551,0,0,1-10.451.634c-1.469,0-2.944-.027-4.406-.17a8.367,8.367,0,0,1-2.418-.608,15.575,15.575,0,0,0-4.748-1.349c-2.412-.232-4.843-.282-7.26-.444-2.57-.171-2.56,3.829,0,4Z"/><path class="d" d="M114.8,213.411c2.3,2.832,5.97,3.855,9.482,3.959a22.865,22.865,0,0,0,4.985-.319c1.728-.329,3.347-1.143,5.1-1.333a2.9,2.9,0,0,1,1.711.192,2.179,2.179,0,0,1,.757.624c.051.07.168.418.167.222,0,.463-.574,1.162-.8,1.536-.052.084-.349.526-.238.39.09-.112-.305.293-.418.392a12.741,12.741,0,0,1-2.807,1.588,34.277,34.277,0,0,1-3.947,1.38,74.578,74.578,0,0,1-11.2,2.327,2.013,2.013,0,0,0-1.4,2.461,2.055,2.055,0,0,0,2.461,1.4,75.13,75.13,0,0,0,10.873-2.232c2.983-.863,6.177-1.9,8.614-3.9a8.789,8.789,0,0,0,2.2-3.021,4.572,4.572,0,0,0-.683-5.37,6.248,6.248,0,0,0-5.2-2c-2.074.154-3.923.985-5.931,1.417a17.257,17.257,0,0,1-5.78.145,7.722,7.722,0,0,1-5.125-2.69,2.014,2.014,0,0,0-2.829,0,2.048,2.048,0,0,0,0,2.829Z"/><path class="d" d="M92.792,213.044c.89-1.4,1.8-3.137,3.29-4a22.58,22.58,0,0,1,5.063-1.652c4.031-1.174,8.291-2.264,11.9-4.472,1.331-.815,2.676-1.745,4.311-1.459a1.743,1.743,0,0,1,1.364,2.69,12.485,12.485,0,0,1-1.9,2.623c-.767.935-1.546,1.875-2.394,2.739-1.806,1.838,1.02,4.669,2.828,2.829a35.649,35.649,0,0,0,4.61-5.632c1.847-2.9,1.335-6.921-1.908-8.552a7.554,7.554,0,0,0-4.862-.576c-1.836.366-3.347,1.506-4.943,2.407-3.447,1.946-7.625,2.85-11.4,3.935a16.682,16.682,0,0,0-5.261,2.043,17.118,17.118,0,0,0-4.151,5.056c-1.381,2.181,2.079,4.19,3.454,2.019Z"/><path class="d" d="M85.394,212.9c.122.014.245.03.368.046l-.532-.072c.874.118,1.743.268,2.617.386a12.7,12.7,0,0,0,2.785.2,2.14,2.14,0,0,0,1.414-.586,2,2,0,0,0,0-2.828,1.962,1.962,0,0,0-1.414-.586,10.383,10.383,0,0,1-2.254-.129l.532.071c-1.174-.158-2.34-.365-3.516-.5a1.991,1.991,0,0,0-1.415.586,2,2,0,0,0,0,2.828l.405.313a1.991,1.991,0,0,0,1.01.273Z"/><path class="d" d="M42.336,202.947c6.968,1.593,14.1,2.171,21.162,3.184,5.846.838,11.722,1.122,17.593,1.718a2.014,2.014,0,0,0,2-2,2.044,2.044,0,0,0-2-2c-5.659-.574-11.33-.832-16.964-1.638-6.919-.99-13.9-1.56-20.728-3.121-2.506-.573-3.576,3.282-1.063,3.857Z"/><path class="d" d="M81.079,207.825c-.233-.172-.528-.657-.259-.141.179.341-.064-.2-.021-.056s.1.294.14.443c.092.328.156.662.217,1,.014.081.084.539.059.359-.02-.141.044.391.056.513a56.99,56.99,0,0,1,.191,6.547c-.084,5.583-.5,11.161-.994,16.721q-.36,4.091-.792,8.174a2.014,2.014,0,0,0,2,2,2.046,2.046,0,0,0,2-2c.58-5.519,1.088-11.048,1.435-16.586.318-5.067.7-10.291.1-15.352-.221-1.87-.5-3.881-2.118-5.072a2.015,2.015,0,0,0-2.737.718,2.047,2.047,0,0,0,.718,2.736Z"/></svg>